<?xml version="1.0" encoding="utf-8"?>
<!-- Generator: Adobe Illustrator 16.0.0, SVG Export Plug-In . SVG Version: 6.00 Build 0)  -->
<!DOCTYPE svg PUBLIC "-//W3C//DTD SVG 1.1//EN" "http://www.w3.org/Graphics/SVG/1.1/DTD/svg11.dtd">
<svg version="1.1" id="Layer_1" xmlns="http://www.w3.org/2000/svg" xmlns:xlink="http://www.w3.org/1999/xlink" x="0px" y="0px"
	 width="595.28px" height="841.89px" viewBox="0 0 595.28 841.89" enable-background="new 0 0 595.28 841.89" xml:space="preserve">
<g>
	<g>
		<g>
			<g>
				<path fill="#10783D" d="M332.721,551.73c0.946,0.525,0.775,0.432,0.928,0.516C331.711,551.059,332.763,551.793,332.721,551.73z"
					/>
				<path fill="#10783D" d="M313.001,543.33l0.45-0.209c0,0-0.777-0.115-1.564-0.199c-0.786-0.088-1.584-0.141-1.584-0.141
					s0.677,0.129,1.354,0.258C312.329,543.186,313.001,543.33,313.001,543.33z"/>
				<path fill="#10783D" d="M295.04,534.822c0.365,1.779,2.06,2.357,3.974,2.908c1.918,0.545,4.059,1.053,5.553,2.154l0.383,0.711
					c0,0,0.494-0.248,0.987-0.496c0.486-0.23,0.973-0.459,0.973-0.459c-1.967-0.85-4.318-1.531-6.479-2.289
					C298.267,536.6,296.259,535.873,295.04,534.822z"/>
				<path fill="#10783D" d="M288.315,523.01c0.057,1.639-2.296-0.195,1.881,1.783c-0.148-0.268-0.177-0.385-0.254-0.563
					C289.585,524.004,289.101,523.67,288.315,523.01z"/>
				<path fill="#10783D" d="M289.942,524.23C291.688,525.336,289.206,522.416,289.942,524.23L289.942,524.23z"/>
				<path fill="#10783D" d="M281.778,519.523c0,0,0.68,0.082,1.359,0.164c0.673,0.094,1.347,0.189,1.347,0.189
					c-0.15-1.139-2.005-2.807-1.047-2.859C280.951,515.986,281.031,517.238,281.778,519.523z"/>
				<path fill="#10783D" d="M278.55,520.785l1.402,0.217C279.889,520.514,279.636,520.172,278.55,520.785z"/>
				<path fill="#10783D" d="M282.888,521.537c0,0-0.73-0.139-1.462-0.279c-0.736-0.127-1.474-0.256-1.474-0.256
					c0.085,0.818-0.346,2.006,1.31,0.344C280.626,522.289,281.542,521.566,282.888,521.537z"/>
				<path fill="#10783D" d="M284.086,523.02c0.984,1.592,2.528,3.025-0.282,2.813C288.497,527.984,288.631,525.41,284.086,523.02z"
					/>
				<path fill="#10783D" d="M293.138,537.227c0,0,0.404,0.402,0.809,0.807c0.406,0.402,0.822,0.777,0.822,0.777
					s0.49-0.057,0.98-0.113c0.486-0.049,0.974-0.096,0.974-0.096c-0.483,0.043-1.346-0.506-2.099-0.971
					C293.874,537.156,293.231,536.764,293.138,537.227z"/>
				<path fill="#10783D" d="M269.196,507.461c-0.563,0.836-0.421,3.025-0.789,4.316l2.077,0.102
					C269.937,510.662,268.664,508.932,269.196,507.461z"/>
				<path fill="#10783D" d="M268.407,511.777c0,0-0.787-0.025-1.573-0.049c-0.794-0.012-1.589-0.025-1.589-0.025
					C267.34,513.369,268.084,512.889,268.407,511.777z"/>
				<path fill="#10783D" d="M276.417,524.73c0,0,1.381-0.137,2.728-0.213c1.35-0.084,2.67-0.115,2.67-0.115
					s-1.526-0.086-3.089-0.105c-1.556-0.035-3.157,0.016-3.157,0.016L276.417,524.73z"/>
				<path fill="#10783D" d="M260.6,500.297l2.417-1.287c0,0-0.995,0.412-1.989,0.822c-1.014,0.434-2.028,0.865-2.028,0.865
					L260.6,500.297z"/>
				<path fill="#10783D" d="M254.825,495.988c1.98-1.258,0.677-4.643,2.285-5.057c-1.595-1-3.802-0.303-5.854,0.365
					C252.966,491.426,254.069,492.811,254.825,495.988z"/>
				<path fill="#10783D" d="M248.022,492.035c0.893,0.008,2.032-0.371,3.233-0.738C250.36,491.217,249.347,491.369,248.022,492.035z
					"/>
				<path fill="#10783D" d="M261.396,508.297c0.106-0.732,0.514-2.566-0.454-4.229l-0.463,3.512
					C260.759,507.799,261.075,508.045,261.396,508.297z"/>
				<path fill="#10783D" d="M260.468,507.693l0.011-0.113c-0.994-0.777-1.652-1.363-1.931-1.623
					C258.791,506.176,259.356,506.713,260.468,507.693z"/>
				<path fill="#10783D" d="M261.626,508.48c-0.084-0.068-0.147-0.117-0.23-0.184C261.354,508.637,261.364,508.768,261.626,508.48z"
					/>
				<path fill="#10783D" d="M270.565,518.607c-1.048,0.236-2.51,0.232-3.481,0.723c-0.964,0.477-1.427,1.416-0.346,3.355
					C268.59,521.598,267.4,519.318,270.565,518.607z"/>
				<path fill="#10783D" d="M261.149,512.762l2.338,2.35c0.275-0.738,0.288-2.09,1.346-2.35c0,0-0.916-0.008-1.831-0.014
					C262.076,512.754,261.149,512.762,261.149,512.762z"/>
				<polygon fill="#10783D" points="259.441,512.797 261.149,512.762 260.292,511.883 				"/>
				<path fill="#10783D" d="M250.348,498.332c-1.772,0.533-3.003-0.213-4.379-1.035c0.985,1.746,2.276,3.143,3.656,4.182
					C250.35,500.652,251.872,499.389,250.348,498.332z"/>
				<path fill="#10783D" d="M255.035,503.213c-0.108,0.012-0.221-0.025-0.325-0.008
					C254.726,503.566,254.801,503.734,255.035,503.213z"/>
				<path fill="#10783D" d="M233.89,487.02c-0.076,0.271-0.144,0.514-0.221,0.791c0.145-0.186,0.266-0.342,0.43-0.553L233.89,487.02
					z"/>
				<path fill="#10783D" d="M249.551,502.23c0.745,1.385,1.785,1.117,2.873,0.646c-0.946-0.303-1.885-0.75-2.799-1.398
					C249.3,501.85,249.126,502.127,249.551,502.23z"/>
				<path fill="#10783D" d="M243.83,490.641c0.101,1.125,0.344,2.199,0.655,3.248C244.567,492.441,244.514,489.943,243.83,490.641z"
					/>
				<path fill="#10783D" d="M254.782,502.109c0.077-0.008,0.153-0.025,0.227-0.012C254.998,501.191,254.877,501.539,254.782,502.109
					z"/>
				<path fill="#10783D" d="M254.782,502.109c-0.766,0.018-1.585,0.439-2.358,0.768c0.758,0.266,1.543,0.371,2.286,0.328
					C254.688,502.895,254.723,502.475,254.782,502.109z"/>
				<path fill="#10783D" d="M215.016,506.262c1.213-1.545,3.088-2.545,4.682-2.523c1.595,0.027,2.894,1.105,3.125,3.672
					c4.138-0.66,8.823-12.043,10.845-19.6c-0.984,1.334-1.78,2.596-5.359,2.574c-0.189,1.215,0.428,3.295,0.649,5.217
					c0.214,1.924,0.04,3.682-1.938,4.336c-4.396-0.793-1.983-3.121-2.382-6.031c-0.699,2.521-2.712,3.203-5.023,4.047
					c-2.305,0.85-4.963,1.91-6.708,5.172l4.529,0.041C216.871,504.125,214.729,504.828,215.016,506.262z"/>
				<path fill="#10783D" d="M237.742,491.834l1.178,0.402c-0.734-1.441-0.75-3.314-0.518-6.998c-2.418,0.148-3.513,1.057-4.304,2.02
					c0,0,1.042,1.111,2.084,2.225c1.083,1.08,2.167,2.158,2.167,2.158L237.742,491.834z"/>
				<path fill="#10783D" d="M243.19,495.756c-2.646,2.662-5.94,2.291-6.578,6.971c3.208,1.889,3.75-1.25,6.327-1.342
					c-2.62-1.375-2.01-1.574-1.049-1.98c0.965-0.408,2.24-0.996,1.118-3.244c1.224,0.164,2.123,0.652,2.961,1.137
					c-0.6-1.059-1.104-2.193-1.484-3.408c-0.002,0.107-0.006,0.188-0.016,0.289l0.028,0.006l-0.035,0.049
					c-0.043,0.568-0.123,0.867-0.204,0.451c-0.039,0.027-0.102-0.002-0.133-0.012c-0.295,0.43-0.61,0.758-0.923,1.066
					c-0.923-1.742,0.293-1.021,0.923-1.066c0.108-0.146,0.233-0.273,0.337-0.439c0.006-0.023,0.006-0.039,0.007-0.055l-5.548-1.941
					C239.585,493.49,240.81,494.416,243.19,495.756z"/>
				<path fill="#10783D" d="M261.291,526.762c-0.07-0.314,0.024-0.5,0.098-0.697C260.877,526.215,260.636,526.375,261.291,526.762z"
					/>
				<path fill="#10783D" d="M259.715,524.057c0.582-0.18,1.408-1.08,2.588-0.146c0.779,1.355-0.577,1.256-0.914,2.154
					c1.133-0.334,3.611-0.492,1.727-3.021l-0.551,0.158c-1.848-1.979-2.936-7.055-2.374-7.225
					C259.628,518.828,259.336,520.926,259.715,524.057z"/>
				<path fill="#10783D" d="M249.969,511.436l-5.072-1.223c0,0,0.188,1.014,0.375,2.027c0.201,1.006,0.401,2.012,0.401,2.012
					l0.733-1.664C248.548,514.736,249.045,512.438,249.969,511.436z"/>
				<polygon fill="#10783D" points="234.621,484.924 237.476,481.697 232.053,485.006 				"/>
				<polygon fill="#10783D" points="229.861,481.141 232.294,478.045 229.788,478.877 				"/>
				<path fill="#10783D" d="M335.643,226.805l2.1-1.591C336.799,225.639,336.15,226.189,335.643,226.805z"/>
				<path fill="#10783D" d="M322.772,224.236l-0.713,3.383C322.876,225.803,323.292,224.446,322.772,224.236z"/>
				<path fill="#10783D" d="M193.723,371.601c6.37,0.363,15.969,2.297,8.927,0.008l-6.956-1.947
					C196.521,371,195.401,371.42,193.723,371.601z"/>
				<path fill="#10783D" d="M228.09,276.123c-0.511-0.618-1.042-1.262-1.569-1.899c0.57,2.656,1.12,5.106,1.676,7.386
					C228.113,279.909,228.089,278.072,228.09,276.123z"/>
				<path fill="#10783D" d="M216.954,245.827c0,0,1.325,0.795,2.65,1.59c1.309,0.79,2.613,1.644,2.613,1.643
					C220.807,247.705,219.115,246.635,216.954,245.827z"/>
				<path fill="#10783D" d="M405.609,242.137c0,0,1.221-1.437,2.44-2.873c1.229-1.417,2.457-2.833,2.457-2.833
					C407.421,234.902,407.292,238.981,405.609,242.137z"/>
				<path fill="#10783D" d="M194.163,436.18c0.663-1.258,1.084-2.254,1.339-3.072c0.288-0.83,0.385-1.473,0.344-1.998
					C193.396,434.338,189.849,438.279,194.163,436.18z"/>
				<path fill="#10783D" d="M318.894,306.137c0.974-1.286,1.546-2.785,1.777-4.47C319.658,302.867,318.998,304.265,318.894,306.137z
					"/>
				<path fill="#10783D" d="M194.478,427.385c-0.475,0.504-0.674,0.867-1.026,1.33c1.259,0.49,2.306,1.047,2.395,2.395
					C197.625,428.695,198.594,426.766,194.478,427.385z"/>
				<path fill="#10783D" d="M496.298,465.99c-0.212,0.129-0.37,0.311-0.597,0.414C496.07,466.576,496.201,466.352,496.298,465.99z"
					/>
				<path fill="#10783D" d="M439.907,506.6c0.465-0.402,1.252-0.984,1.98-1.535C441.499,505.271,440.91,505.727,439.907,506.6z"/>
				<path fill="#10783D" d="M215.137,461.939C216.12,462.641,215.629,461.684,215.137,461.939L215.137,461.939z"/>
				<path fill="#10783D" d="M206.487,481.092c-0.557,0.211-1.164,0.582-1.916,1.408
					C205.412,481.691,206.028,481.262,206.487,481.092z"/>
				<path fill="#10783D" d="M155.417,430.965c-0.013-0.041-0.004-0.08-0.02-0.127C154.385,431.662,154.58,431.514,155.417,430.965z"
					/>
				<path fill="#10783D" d="M214.79,465.029c0.108-0.807,0.112-1.59-0.009-2.299C214.68,463.211,214.656,463.932,214.79,465.029z"/>
				<path fill="#10783D" d="M216.193,463.1c0.115,0.492,0.242,0.84,0.353,1.184C217.185,463.789,217.445,463.299,216.193,463.1z"/>
				<path fill="#10783D" d="M213.939,460.807c0.475,0.484,0.674,1.184,0.841,1.924c0.075-0.432,0.203-0.717,0.356-0.791
					C214.857,461.725,214.501,461.395,213.939,460.807z"/>
				<path fill="#10783D" d="M480.343,337.943c-0.098,0.193-0.133,0.365-0.28,0.601C482.935,338.66,482.239,338.242,480.343,337.943z
					"/>
				<path fill="#10783D" d="M142.073,306.644c0.016,0.114,0.151,0.26,0.186,0.376c0.109-0.029,0.25-0.062,0.361-0.079
					L142.073,306.644z"/>
				<path fill="#10783D" d="M141.199,297.922c2.916,3.917,3.98,5.979,3.958,7.183c-0.026,1.195-1.156,1.507-2.536,1.836
					c0,0,4.739,2.563,9.444,5.194c4.708,2.625,9.381,5.32,9.381,5.32s-5.171-4.731-10.239-9.633
					C146.138,302.946,141.198,297.922,141.199,297.922z"/>
				<path fill="#10783D" d="M366.359,232.308c0,0-0.141-0.488-0.352-1.22c-0.217-0.728-0.506-1.699-0.796-2.67
					c-0.605-1.925-1.212-3.851-1.212-3.851c3.958-4.65,6.663-5.584,8.168-6.763c1.504-1.175,1.855-2.531,1.104-7.778
					c-1.746,5.574-3.673,8.105-5.702,9.253c-2.033,1.156-4.164,0.843-6.301,0.532c-4.251-0.673-8.597-1.091-11.377,10.369
					l-1.7-5.537c0.744,0.419,1.16-0.914,1.896-0.486c-1.528-6.212-3.456-2.29-5.645,2.615c-2.221,4.919-4.71,10.848-7.745,8.513
					c-2.012-2.264-3.149-6.001-1.055-8.48c0,0-1.577,1.175-3.141,2.416c-1.552,1.252-3.104,2.504-3.104,2.504
					c-1.478-0.7-0.531-4.759,0.971-4.06c0,0-2.117,0.152-4.234,0.304c-1.054,0.08-2.107,0.159-2.897,0.219
					c-0.785,0.052-1.319,0.126-1.319,0.126l0.143-0.696c-1.628,3.602-4.839,9.098-6.304,11.437
					c-1.699-3.662,1.254-2.429,1.027-5.473c0,0-1.245,1.328-2.491,2.655c-1.221,1.334-2.441,2.668-2.441,2.668
					c-0.648-3.21,0.035-6.235,1.312-8.288c1.271-2.054,3.133-3.139,4.669-2.512c-0.986-12.203-2.21-10.832-4.026-8.256
					c-0.914,1.272-2.012,2.901-3.395,3.265c-1.391,0.365-3.055-0.522-5.287-4.201c0,0,1.168-0.689,2.336-1.377
					c1.182-0.677,2.361-1.354,2.361-1.354c-1.031-6.962-2.608-9.27-4.512-10.945c-1.904-1.708-4.156-2.678-6.854-7.047
					c0.626,2.271,3.271,7.725,4.843,13.417c1.59,5.706,2.189,11.534-0.445,14.381c-1.332-1.923-3.285-2.815-6.087,1.983
					c0.105-8.602-2.666-6.613-6.078-6.125l0.119-11.439c-3.854,3.346-3.393,9.172-5.406,14.365
					c-2.066-0.522-3.419-3.002-4.465-6.268c-1.052-3.242-1.772-7.301-2.523-11.008c-3.652-0.702-2.14,2.783-0.832,6.772
					c1.316,3.994,2.392,8.483-1.465,9.817c-5.875-4.048-9.668,1.184-15.079,8.836c-2.207-1.634-2.345-3.393-2.122-5.129
					c0.216-1.735,0.791-3.443-0.181-4.949c0,0-0.513,2.412-1.025,4.825c-0.471,2.408-0.942,4.815-0.942,4.815
					c-0.868-0.073-1.1-2.893-1.209-4.317c-1.148,2.003-0.669,4.837-0.411,7.654c0.264,2.821,0.316,5.605-1.496,7.532
					c0.692,6.34-2.303,2.271-6.09-1.391c-1.87-1.818-3.979-3.583-5.64-3.824c-1.66-0.246-2.962,0.92-3.256,4.761
					c-2.216-2.75-1.348-6.957-2.98-11.117c-1.196,2.769-2.051,4.746-2.721,6.297c-0.626,1.554-1.053,2.707-1.403,3.94
					c-0.691,2.484-1.102,5.221-1.77,12.223c0,0-1.833-1.323-3.729-2.618c-1.89-1.297-3.843-2.565-3.843-2.565
					c3.433,3.302,4.798,7.825,5.401,12.601c0.575,4.749,0.471,9.92,0.472,14.462c2.741,3.352,5.011,6.345,6.243,7.704
					c0,0-0.662,1.963-1.258,3.895c-0.291,0.959-0.581,1.918-0.798,2.638c-0.197,0.734-0.329,1.224-0.329,1.224
					c-1.357-1.437-2.587-5.214-3.75-9.973c0.048,1.027,0.119,2.034,0.236,2.94c-3.581-2.975-5.607-9.34-6.842-15.869
					c1.629,1.703,3.316,3.633,4.93,5.542c-1.503-6.951-3.084-14.681-6.009-20.74c0.104,1.397-0.228,2.782-0.82,3.738
					c-0.363-1.907-0.771-3.573-1.42-4.543c-0.699-1.017-0.36,1.613-0.168,4.727c0,0-1.681-2.752-3.361-5.504
					c-1.703-2.726-3.405-5.452-3.405-5.452l1.784,4.781c0,0-2.92-0.795-5.943-1.519c-1.515-0.376-3.027-0.697-4.162-0.917
					c-1.144-0.224-1.907-0.374-1.907-0.374c0.002,3.677,0.297,7.577,0.735,11.569c0.452,3.806,0.914,7.691,1.407,11.847
					c0.403,3.794,0.769,7.516,0.73,10.761c-0.011,1.635-0.13,3.145-0.345,4.569c-0.208,1.435-0.54,2.744-1.034,3.908
					c-1.853-4.392-3.93-7.576-6.388-10.744c-2.45-3.175-5.277-6.336-8.441-10.841c4.534,3.9,5.287,1.757,5.873-1.489
					c0.543-3.253,0.858-7.803,3.834-8.18c-3.052,0.426-5.336-4.348-5.646-6.318c0,0-0.186,0.898-0.465,2.246
					c-0.255,1.368-0.578,3.182-0.87,4.978c-0.294,1.797-0.559,3.576-0.744,4.903c-0.184,1.33-0.271,2.239-0.271,2.239
					c-4.985-7.52-5.543-4.303-9.853-5.717c12.035,13.132,1.41,13.824,2.108,20.523c-2.007-2.189-3.831-4.581-4.567-6.702
					c-0.751-2.13-0.37-3.973,1.965-4.933c-3.11-1.766-4.239-1.327-4.261,0.199c-0.016,1.542,1.047,4.151,2.188,6.772
					c1.139,2.623,2.356,5.257,2.601,6.899c0.235,1.638-0.482,2.294-3.27,1.078c0.711-0.879,1.745-0.616,0.078-3.149
					c0.771,2.848-0.619,4.586-2.585,5.039c-1.964,0.439-4.469-0.314-5.73-2.7c0,0,0.742-0.895,0.743-0.895
					c-1.75,0.957-3.581,2.588-5.273,4.545c-1.673,1.977-3.049,4.439-3.91,7.003c-0.804,2.62-1.007,5.419-0.327,8.125
					c0.684,2.717,2.335,5.404,5.093,7.836c-1.566-1.073-13.509-11.563-15.552-13.816c0,0,1.908,2.642,4.853,6.478
					c2.952,3.847,6.92,8.82,11.083,13.65c4.164,4.845,8.44,9.482,11.693,12.861c1.626,1.692,2.991,3.076,3.953,4.041
					c0.974,0.966,1.53,1.518,1.53,1.518c-5-3.799-14.217-9.028-22.644-14.205c-8.399-5.191-16.027-10.51-17.137-15.301
					c-1.246,0.312-2.674,0.658-3.508,1.736c-0.847,1.061-1.187,2.797-0.319,5.679c1.089-0.109,5.339,1.555,9.307,3.554
					c3.97,1.995,7.675,4.287,7.756,5.254c-7.048-1.781-9.067-1.962-10.874-1.949c-1.832,0.046-3.48,0.26-10.04,0.113
					c1.625-0.243,6.432,2.489,10.624,5.483c4.173,2.997,7.821,6.221,6.959,7.271c-2.384-1.722-17.116-8.494-18.423-10.438
					c0,0,3.389,3.949,6.871,7.657c1.736,1.86,3.489,3.671,4.849,5.028c1.353,1.338,2.255,2.23,2.255,2.23
					c-2.417-2.997-14.394-7.112-19.938-7.615c1.837,0.386,1.123,1.899,0.073,3.667c-1.014,1.785-2.303,3.887-1.79,5.195
					c0,0,1.285-0.379,2.57-0.758c1.282-0.356,2.564-0.713,2.564-0.713c-1.384,1.75-0.721,3.747,1.014,5.767
					c1.752,2.033,4.611,4.121,7.513,6.139c2.908,2.021,5.884,3.986,7.94,5.822c2.054,1.841,3.285,3.57,2.565,5.195
					c-1.721-0.915-7.213-3.063-12.677-4.615c-5.464-1.55-10.916-2.412-12.563-0.582c4.272,2.179,14.86,7.168,25.04,11.828
					c2.373,1.094,4.875,2.248,7.48,3.448c2.43,1.122,4.736,2.2,6.812,3.211c4.17,2.029,7.344,3.774,8.905,5.218
					c0,0-1.343,0.043-2.687,0.087c-1.343,0.057-2.687,0.115-2.687,0.115s1.333,1.173,2.657,2.278
					c0.663,0.543,1.326,1.087,1.823,1.495c0.516,0.397,0.86,0.661,0.86,0.661c-3.382-0.888-7.593-2.188-12.249-3.88
					c-4.641-1.687-9.755-3.779-14.696-6.121c-4.92-2.332-9.757-4.925-14.008-7.488c-4.261-2.561-7.806-5.048-10.367-7.101
					c-2.377,1.136-3.958,1.044-5.002,1.269c-1.03,0.232-1.594,0.792-1.692,3.392c-2.572,0.434-4.336-0.603-5.462-2.012
					c-1.149-1.41-1.546-3.134-1.559-3.95c0,0-0.333,0.73-0.832,1.826c-0.488,1.102-1.07,2.601-1.672,4.104
					c-0.588,1.515-1.175,3.03-1.616,4.166c-0.393,1.158-0.654,1.931-0.654,1.931c5.358,0.484,7.836,3.231,10.103,5.784
					c2.25,2.571,4.464,4.998,8.872,5.12c0,0-2.671-3.272-5.111-6.791c-1.24-1.754-2.495-3.569-3.401-4.948
					c-0.879-1.386-1.465-2.311-1.465-2.311c5.382,0.655,12.619,3.801,18.386,7.271c2.865,1.743,5.312,3.574,6.877,5.361
					c1.632,1.8,2.402,3.561,1.831,5.271c-2.159,0.758-6.848,0.201-11.457-0.666c-4.605-0.855-9.125-2.04-10.896-2.082
					c1.831,0.674,3.432,2.702,4.458,4.603c0.988,1.903,1.204,3.699-0.069,4.059c0,0-1.425-0.881-2.851-1.762
					c-1.429-0.918-2.858-1.835-2.858-1.835c-1.914,2.284,1.596,4.288,4.418,6.195c2.856,1.952,4.91,3.771,0.186,6.732
					c-0.217,0.942-3.361,2.565-5.652,4.031c-2.294,1.455-3.746,2.71-0.699,2.565c11.174-4.493,47.627-7.246,56.445-6.8
					c-0.362,0.241-3.195,2.063-6.322,4.308c-3.173,2.224-6.92,4.951-9.514,6.26c-4.22,1.965-9.655,2.107-15.044,1.953
					c-5.357-0.123-10.603-0.576-14.215,1.299c2.738-0.314,6.446,0.662,7.671,1.08c-1.89,2.195-8.58,0.789-6.378,4.527
					c5.073-0.688,5.287,1.297,5.352,2.466c0.05,1.195-0.306,1.516,3.481-2.429c3.802,2.947-0.936,4.314,0.76,8.507
					c2.908-1.563,8.437-2.051,13.73-2.092c5.282-0.016,10.164,0.402,11.926,1.418c-2.411,0.641-5.256,2.402-6.529,3.252
					c0.4,1.658,0.564,3.207,0.591,4.717c0.056,1.498-0.108,2.996-0.053,4.4c0.018,1.422,0.067,2.836,0.292,4.27
					c0.221,1.436,0.607,2.896,1.437,4.32c-1.73,1.564-2.435,5.73-6.648,6.453c1.977,0.072,5.132-0.672,6.421,0.98
					c-2.28,3.725-3.176,2.924-4.373,2.074c-1.125-0.867-2.537-1.805-5.834,1.986c4.751-2.352,9.549,0.973,13.9,1.635
					c3.116-2.611,2.567-4.195,0.629-5.258c-0.969-0.531-2.291-0.938-3.665-1.27c-1.339-0.354-2.716-0.648-3.837-0.887
					c5.023-2.82,10.729-4.551,16.055-5.471c2.675-0.459,5.235-0.693,7.554-0.684c2.326,0.01,4.367,0.283,6.223,0.77
					c4.643,2.328-4.722,5.826-3.021,5.602c0.807,2.203,2.575,2.932,4.518,2.998c1.952,0.066,4.137-0.547,6.114-1.1
					c1.961-0.543,3.788-1.066,4.977-0.775c1.194,0.295,1.761,1.381,1.401,4.074c-1.619,3.357-3.906,5.576-6.33,7.439
					c-2.399,1.859-4.869,3.328-6.383,5.184c-2.285-0.75-2.566-2.682-2.454-4.641c0.053-0.98,0.199-1.971,0.211-2.836
					c0.024-0.875-0.058-1.643-0.524-2.148c0,0-0.111,1.188-0.223,2.375c-0.077,1.172-0.118,2.342-0.118,2.342
					c-2.581,0.475-5.662-0.719-5.052-3.146c-0.804,1.475-0.607,3.078,0.147,4.805c0.804,1.684,2.206,3.445,3.704,5.326
					c1.5,1.881,3.264,3.725,4.658,5.771c0.693,1.029,1.371,2.033,1.926,3.078c0.553,1.049,0.987,2.135,1.255,3.264
					c2.451-0.568,5.6-0.586,6.471-3.16c0,0-0.577-0.244-1.148-0.502c-0.574-0.254-1.149-0.508-1.149-0.508
					c0.953-2.592,2.956-3.078,4.59-3.402c1.646-0.32,2.948-0.477,2.754-2.369c2.246-0.197,4.89-0.76,7.018-0.596
					c1.07,0.078,2.023,0.33,2.778,0.879c0.777,0.533,1.372,1.35,1.696,2.594l-3.662,5.729c1.148-1.58,0.49-4.969-1.711-4.211
					c1.614-0.535,1.331,2.316,1.622,4.631c0.283,2.307,1.111,4.086,4.507,1.324c0,0,0.106-1.369,0.275-2.777
					c0.176-1.406,0.353-2.811,0.353-2.811c2.11-0.25,4.918-1.154,7.289-1.436c2.395-0.299,4.284,0.084,5.066,2.102
					c2.461-6.16-1.108,0.031,1.526-7.717c-1.982,4.475-3.515,2.748-4.979,1.205c-0.363-0.387-0.724-0.76-1.088-1.02
					c-0.35-0.273-0.706-0.434-1.08-0.383c-0.744,0.1-1.58,1.051-2.508,3.645c1.836-4.414,1.713-5.973,1.401-7.469
					c-0.298-1.496-0.805-2.932,0.801-7.184c-1.429,1.793-2.119,4.172-3.192,1.105c-0.525,0.4-1.287,0.801-1.746,1.023
					c-0.016-0.113-0.01-0.166-0.01-0.277c-0.022,0.111-0.061,0.219-0.08,0.324c-0.31,0.162-0.365,0.207-0.024,0.117
					c-0.229,1.275-0.657,2.607-1.343,3.736c-2.207,1.418-4.113,1.213-5.851,0.766c-1.687-0.484-3.192-1.215-4.713-0.814
					c-0.396-2.152,2.381-1.391,3.505-3.941l-4.537,1.211c1.795-1.975,2.67-4.457,3.718-6.299c1.039-1.844,2.243-3.063,4.462-2.572
					l-1.811-3.02c0.988-3.746,0.694-6.869-1.998-6.727c0.096-2.066-6.842,0.563-2.744-1.045c0,0-1.337-0.58-2.674-1.162
					c-0.686-0.293-1.373-0.586-1.887-0.807c-0.53-0.217-0.849-0.379-0.849-0.379l1.144-0.906c-0.793-2.5-4.121-3.344-6.255-5.186
					c-0.549-0.449-1.04-0.947-1.413-1.523c-0.187-0.289-0.343-0.598-0.463-0.928c-0.098-0.34-0.152-0.703-0.164-1.092
					c-0.043-1.555,0.643-3.529,2.638-6.068c-0.966-0.391-1.959-0.785-2.681-1.488c-0.698-0.705-1.127-1.725-0.688-3.344l4.927-2.638
					c-1.087-0.561-0.136-2.479,0.444-3.996c0.594-1.535,0.948-2.738-1.921-2.219c3.518-1.67,5.436-3.043,6.326-4.213
					c0.931-1.201,0.943-2.294,0.493-3.303c-0.219-0.508-0.542-1.003-0.887-1.491c-0.299-0.491-0.618-0.976-0.879-1.453
					c-0.509-0.949-0.845-1.908-0.071-2.704l-7.563,1.074c0.112-0.559,0.061-1.081-0.132-1.594c-0.186-0.514-0.579-1.01-0.967-1.533
					c-0.811-1.041-2.149-2.13-3.651-3.459l-6.917,0.558c-1.381-0.59-1.753-1.364-1.536-2.219c0.225-0.854,0.994-1.785,2.062-2.726
					c1.038-0.941,2.239-1.885,3.159-2.824c0.957-0.941,1.689-1.878,1.648-2.874c2.667,0.498,1.799,1.379,0.044,1.993
					c4.204-0.938,5.635-1.893,5.709-3.034c0.118-1.133-1.229-2.456-2.711-3.896c-1.403-1.426-2.962-2.967-3.376-4.292
					c-0.364-1.311,0.479-2.392,3.715-2.7c-2.289-1.683-1.07-2.249,0.951-2.451c-0.019,0.099,0.081,0.221,0.278,0.355
					c0.123-0.08,0.194-0.229,0.236-0.391c1.379-0.099,2.959-0.128,4.261-0.253c-1.86-0.124-3.42-0.14-4.203,0.024
					c0.068-0.411-0.012-0.975-0.28-1.66c-0.258-0.684-0.647-1.477-1.289-2.365l7.742,2.063c-0.062-0.12-0.016-0.185-0.106-0.32
					c3.224-0.049-3.189-2.154-9.104-3.505c-0.983-1.042-2.271-2.162-3.856-3.283c6.278,1.748,5.614,0.637,5.084-0.573
					c-0.266-0.599-0.5-1.211,0.166-1.417c0.679-0.201,2.28,0.015,5.623,1.097c-2.891-1.716-3.333-3.702-4.535-6.149
					c-1.17-2.428-3.166-5.402-9.323-9.174c1.688,0.838,2.681,0.874,2.398,1.637c2.293-0.696,4.564-1.2,1.799-4.56
					c0,0,2.334,1.178,4.668,2.355c2.336,1.198,4.672,2.396,4.672,2.396s-2.539-2.481-5.029-5.084
					c-2.495-2.591-4.938-5.304-4.938-5.304c6.659,1.524,10.208,3.17,15.742,9.169c-3.744-5.304-4.049-6.904-4.463-8.317
					c-0.345-1.435-0.786-2.697-4.281-8.324l5.28,4.373c0.363-0.705-0.808-2.937-1.423-4.71c-0.621-1.767-0.689-3.054,1.797-1.585
					c3.065,1.408,5.473,1.498,7.484,0.768c0.995-0.376,1.979-0.885,2.919-1.524c0.957-0.623,1.821-1.427,2.813-2.162
					c3.745-3.09,8.48-6.465,15.542-3.798c-6.798-7.879-4.575-6.595-1.854-4.948c2.708,1.625,5.848,3.818,1.528-2.974
					c3.171,3.791,5.596,5.543,6.873,9.786c0.175-1.529,0.855-2.123,1.688-2.285c0.847-0.142,1.827,0.108,2.619,0.147
					c0.796,0.042,1.398-0.143,1.551-1.144c0.166-0.982-0.131-2.806-1.112-6.134c2.752,4.151,2.69,6.745,4.452,9.126
					c-0.254-1.063-0.943-4.334,0.783-1.915c1.698,2.426,1.433,3.924,1.957,6.064c1.39-1.207,0.499-5.168-1.408-10.556
					c-1.916-5.385-4.908-12.135-7.826-18.66c2.57,2.509,3.956,3.477,4.484,2.663c0.521-0.827,0.146-3.484-0.818-8.178
					c2.652,3.954,5.665,7.992,3.716,10.663c0.437,0.007,1.37,0.141,2.463,0.243c1.103,0.123,2.347,0.171,3.409-0.125
					c1.022-0.312,2.053-0.903,2.531-2.139c0.485-1.232,0.486-3.091-0.36-5.836c1.421,2.588,2.557,0.076,2.62-1.304
					c1.967-0.212,3.091-0.094,4.145-0.187c0.526-0.036,1.038-0.17,1.621-0.343c0.583-0.178,1.246-0.465,2.084-0.942l-1.456-1.595
					c-0.941-6.899-0.265-7.855,0.902-7.355c0.586,0.249,1.3,0.859,2.029,1.26c0.727,0.391,1.477,0.595,2.188,0.063l0.183,1.412
					c4.474,4.291,4.908,2.986,5.523,1.839c0.295-0.562,0.585-1.126,1.368-0.832c0.772,0.282,2.031,1.351,4.088,3.963l-1.425-8.502
					c-0.807-9.23,1.289-6.767,3.775-2.846c2.541,3.987,5.31,9.373,7.167,5.659l-1.816-4.777c0.486-1.626,1.255-0.909,2.118,1.129
					c0.87,2.069,1.833,5.45,2.746,9.098c1.848,7.298,3.423,15.659,4.425,16.757c0.451,1.583-0.656,2.612-1.223,3.831
					c2.611,5.283,2.725,2.536,2.737-1.969c0.002-4.493-0.214-10.671,1.921-11.967c0.674,6.048-1.062,15.395,1.502,16.5
					c0.584,2.443,2.519-2.52,5.014-6.44c2.446-3.962,5.438-7.141,6.835-1.206c-0.408-4.67-0.946-9.36,1.4-12.663
					c1.652-0.682,3.339,3.794,5.01,6.717c1.697,2.968,3.412,4.286,5.87-2.721c0.209,1.287,0.174,2.492,0.02,3.623
					c1.444-1.758,3.591-2.915,5.772-4.697c2.176-1.75,4.392-4.029,5.894-7.706c-1.654,14.438,2.543,11.568,6.883,8.615
					c4.282-2.884,8.631-5.984,5.126,6.698c0,0,0.118,0.003,0.324,0.009c0.208,0.001,0.502,0.015,0.852,0.04
					c0.705,0.044,1.645,0.104,2.583,0.164c1.891,0.121,3.781,0.242,3.781,0.242l-0.97,2.497c3.972,2.836,7.47-2.547,11.191-7.917
					c0.502,1.991-1.093,4.023-1.624,5.279c2.474,3.5,3.842,5.103,5.975,4.486c2.141-0.613,4.895-3.267,10.188-7.99l-2.637,7.799
					c1.684-1.919,2.836,1.928,4.604,5.519c0.897,1.784,1.994,3.444,3.486,4.323c1.474,0.913,3.374,1.006,6.002-0.369
					c-0.484,0.775-1.339,2.092-2.344,2.882c1.396-0.666,2.552-0.737,3.518-0.403c0.94,0.369,1.694,1.135,2.328,2.104
					c0.634,0.969,1.146,2.14,1.613,3.328c0.228,0.598,0.453,1.191,0.676,1.776c0.204,0.6,0.408,1.183,0.623,1.725
					c0.854,2.18,1.888,3.68,3.827,3.288c1.953-0.409,4.737-2.611,9.291-8.06c0,0,2.038-0.775,4.113-1.503
					c2.071-0.732,4.18-1.416,4.18-1.416c-2.219-2.679-0.295-5.067,2.275-7.362c2.563-2.309,5.803-4.487,5.894-7.228
					c0.833,0.081,1.343,0.807,1.548,1.853c0.194,1.062,0.101,2.417-0.216,3.717c-0.634,2.602-2.158,4.991-3.944,4.572l0.395-1.427
					c-4.764,5.467-3.809,7.717-2.436,9.522c0.687,0.909,1.497,1.708,1.738,2.75c0.21,1.072-0.137,2.359-1.696,4.201
					c2.627,1.754,4.997,3.853,6.879,6.313c0.961,1.214,1.925,2.427,2.755,3.717c0.816,1.298,1.6,2.605,2.371,3.897
					c0.382,0.649,0.78,1.283,1.142,1.932l1.02,1.967c0.684,1.295,1.378,2.556,2.108,3.768c0.658,1.249,1.31,2.467,2.063,3.602
					c0.741,1.142,1.581,2.209,2.328,3.287c0,0,1.84-1.654,3.679-3.309c1.832-1.687,3.664-3.374,3.664-3.374l1.993,3.547
					c-1.26,2.097-5.585,5.191-6.955,2.908c-1.87,2.103-0.19,2.271,2.219,1.901c2.433-0.394,5.479-1.275,6.404-1.783
					c-0.133,3.335-2.873,4.198-5.456,4.625c-2.586,0.404-5,0.34-4.648,1.011l1.856,1.296l0.689-0.948
					c2.205-0.305,4.237-0.904,5.911-1.064c0.837-0.08,1.583-0.045,2.217,0.198c0.629,0.245,1.181,0.688,1.477,1.47
					c-0.607,2.667-4.629,3.508-4.533,4.346c-0.597,0.289-0.737,0.639,0.408,1.126c0,0,0.453,1.05,0.906,2.101
					c0.365,1.074,0.73,2.148,0.73,2.148s1.447-1.098,2.896-2.196c1.449-1.14,2.897-2.28,2.897-2.28
					c4.239,0.561,1.712,4.409,8.24-0.777c-2.548,2.005-3.53,4.108-3.686,6.229c-0.114,1.079-0.01,2.162,0.237,3.238
					c0.245,1.077,0.549,2.201,0.96,3.272c0.419,1.087,0.833,2.165,1.226,3.185c0.392,1.034,0.813,1.992,1.07,2.895
					c0.536,1.795,0.738,3.203,0.034,3.88c2.745,1.168,4.258,2.636,5.146,4.3c0.813,1.688,1.054,3.562,1.144,5.648
					c1.089-1.138,7.922-2.554,7.526,1.312c-3.543-0.044-5.647,0.403-6.925,1.11c-1.288,0.711-1.721,1.689-2.088,2.791
					c-0.687,2.189-0.824,4.895-5.423,6.373c2.982-1.314,3.747,1.133,4.716,3.477c0.943,2.318,2.086,4.583,6.26,2.619
					c-0.853,3.035-4.74,0.076-7.524,2.229c2.679,3.598,2.015,7.549,0.965,11.494c-0.268,0.986-0.538,1.984-0.813,2.994
					c-0.275,1.002-0.572,2.002-0.777,3.027c-0.373,2.066-0.671,4.135-0.449,6.373c1.284,0.445,3.461-0.596,5.218,1.758l-6.883,2.979
					c0.257,0.934,1.94,1.807,2.996,2.711c1.062,0.896,1.417,1.828-0.848,2.746c1.035-0.123,2.654-0.328,2.802,0.955
					c-0.533,0.975-1.111,1.912-1.568,2.896c-0.484,0.971-0.854,1.996-1.268,2.986c-0.831,1.979-1.412,4.088-2.135,6.129
					c-0.351,1.025-0.621,2.115-0.984,3.141l-1.049,3.145c-0.315,1.084-0.785,2.059-1.18,3.109c-0.423,1.023-0.8,2.104-1.321,3.072
					l-1.518,2.984c-0.541,0.977-1.17,1.883-1.771,2.824l-0.916,1.408l-1.032,1.305c-0.704,0.855-1.394,1.74-2.15,2.551
					c-1.584,1.537-3.15,3.135-4.966,4.389c-0.9,0.635-1.721,1.395-2.681,1.934l-2.793,1.758c2.157-1.02,1.068,0.244-0.408,1.43
					c1.069-0.559,0.418,0.854,0.847,1.164c0,0-1.796,0.709-3.521,1.547c-0.851,0.449-1.769,0.746-2.42,1.063
					c-0.659,0.299-1.099,0.498-1.099,0.498c-0.226,0.406-0.801,0.871-1.549,1.363c-0.763,0.449-1.719,0.859-2.654,1.299
					c-0.944,0.441-1.869,0.873-2.608,1.217c-0.756,0.299-1.321,0.537-1.508,0.668c0,0,0.602-0.213,1.203-0.426
					c0.301-0.104,0.599-0.217,0.814-0.33c0.218-0.102,0.363-0.172,0.363-0.172c-1.505,0.916-0.383,0.613,1.2,0.547
					c1.563-0.109,3.631,0.027,3.553,0.604c0.903-0.369,1.951-0.773,3.203-0.984c1.239-0.248,2.695-0.301,4.179-0.588
					c1.49-0.26,3.154-0.438,4.699-0.984c1.52-0.586,3.001-1.404,4.084-2.771c0.784-0.133,0.633,0.197,0.393,0.563
					c-0.251,0.346-0.599,0.713-0.065,0.809c0.519-0.777,1.128-1.537,2.105-2.227c0.954-0.719,2.335-1.297,4.092-2.164l-0.157,0.492
					c1.112-0.766,2.162-1.469,3.173-2.123c1.009-0.658,1.878-1.361,2.792-1.975c0.917-0.621,1.797-1.217,2.663-1.803
					c0.858-0.613,1.702-1.217,2.556-1.826c3.48-2.439,7.125-5.105,11.881-9.68l-2.713-0.541c1.88-1.967,2.92-2.037,4.279-2.742
					c-0.828-2.201-2.02-0.691-3.222,0.795c-1.189,1.506-2.542,2.916-3.441,0.764c3.131-0.09,6.12-3.854,8.562-7.727
					c1.284-1.916,2.378-3.861,3.786-5.271c1.379-1.42,2.857-2.367,4.881-2.295c1.02-1.879-0.01-1.904-1.021-1.932
					c-1.012-0.029-2.006-0.063-1.08-1.91l2.386-0.361l-2.097-1.762c1.456-2.32,4.587-2.861,6.388-2.469
					c-0.493,0.559-0.34,1.893-0.515,2.598c4.108-2.596,3.256-9.656,4.427-10.605c0,0-0.691,0.881-1.384,1.762
					c-0.714,0.867-1.428,1.734-1.428,1.734c1.074-5.605,3.26-11.588,4.632-17.723c0.369-1.531,0.697-3.066,0.901-4.596
					c0.218-1.529,0.404-3.053,0.445-4.559c0.004-3.008-0.279-5.945-1.445-8.666l-2.212,0.758c-0.77-2.053-0.994-3.46-0.88-4.585
					c0.075-1.125,0.499-1.961,0.99-2.832s1.06-1.777,1.424-3.031c0.347-1.252,0.443-2.854,0.024-5.089l0.535,0.297
					c-2.188-1.687-3.454-3.955-3.222-6.426c1.396,0.999,2.713-0.185,4.097-1.331c1.368-1.137,2.766-2.24,4.339-0.845
					c-2.47-4.393-3.481-5.356-4.993-5.896c-1.536-0.511-3.528-0.634-8.395-2.746l3.942-2.035c-3.963-1.325-5.935-1.105-7.736-5.155
					c2.109,1.363,3.55,0.367,5.192-0.672c1.596-1.021,3.426-2.1,6.069-0.477c1.947-2.925,2.147-5.274,1.626-7.142
					c-0.592-1.88-1.971-3.286-3.182-4.516c-1.201-1.235-2.359-2.299-2.351-3.63c-0.019-1.332,1.116-2.942,4.163-5.333
					c-3.305-0.091-5.208,0.614-6.248,1.586c-1.045,0.98-1.2,2.244-1.156,3.485c0.136,2.466,1.479,4.783-0.103,3.953
					c-1.653,1.605-4.086,1.364-6.075,0.438c-1.989-0.94-3.503-2.584-3.438-4.143c-0.366-1.423,2.996-4.031,6.1-7.408
					c1.53-1.674,3.085-3.586,3.905-5.509c0.839-1.928,1.095-3.953,0.257-5.884c0.255,0.805,1.168,0.426,1.426,1.232
					c0.924-2.199-0.673-3.182-2.068-4.294c-1.409-1.12-2.724-2.277-1.126-5.407c-4.009,1.029-4.448-0.101-5.056-0.956
					c-0.61-0.842-1.362-1.396-5.988,1.133c-0.001,0,0.354,0.31,0.855,0.802c0.506,0.494,1.181,1.151,1.856,1.809
					c1.345,1.345,2.689,2.689,2.689,2.689c-2.105-1.235-6.248-1.154-9.567-1.729c-3.38-0.566-6.051-1.65-5.228-6.097
					c2.04-0.819,5.405-0.742,7.428-0.41c0.806-1.704-0.12-2.251-1.036-2.783c-0.922-0.535-1.815-1.072-1.037-2.881
					c4.561-2.914,6.196-1.23,7.818,1.049c0.809,1.142,1.609,2.433,2.774,3.431c1.13,1.031,2.583,1.813,4.824,1.883
					c1.378-2.131-1.174-3.307-2.888-4.143c-1.682-0.868-2.351-1.715,3.058-3.776c-6.979,2.419-7.59,0.488-8.031-2.091
					c-0.198-1.301-0.443-2.647-1.359-3.594c-0.921-0.936-2.546-1.438-5.593-0.823l5.397-3.7c-1.329-0.133-4.775,0.221-5.598-1.18
					c0,0,2.108-0.779,4.192-1.468c2.098-0.682,4.195-1.365,4.195-1.365c-4.137,0.215-4.231-2.482-4.018-5.642
					c0.211-3.111,0.721-6.682-2.199-7.119c2.997,3.777,1.749,5.57-0.337,7.167c-2.1,1.604-5.058,3.153-5.755,6.251
					c-3.382-0.717-4.433-2.084-4.403-3.862c0.037-1.776,1.253-4.05,2.559-6.52s2.701-5.134,3.084-7.701
					c0.191-1.282,0.133-2.544-0.322-3.729c-0.469-1.16-1.354-2.198-2.752-3.111c0.941,0.301,1.354,2.292,0.996,4.201
					c-0.371,1.944-1.514,3.806-3.515,3.906c-0.64-2.767-1.01-7.052,0.414-10.901c-3.469-2.68-4.439-1.026-5.223,1.262
					c-0.786,2.314-1.435,5.259-4.096,5.59c1.886-4.23,0.524-4.269-1.77-3.307c-2.308,0.969-5.589,2.999-7.75,2.891l4.606-5.589
					c-1.933-5.074-4.832-2.435-7.462,0.146c-2.657,2.576-5.108,5.2-6.465,0.391c0,0,2.196-1.493,4.393-2.986
					c2.22-1.456,4.439-2.912,4.439-2.912s-1.232-0.184-2.465-0.367c-1.226-0.171-2.452-0.342-2.452-0.342l5.711-6.148
					c-1.86,0.449-3.256,0.663-4.344,0.643c-1.1,0.009-1.894-0.212-2.527-0.657c-1.269-0.886-1.902-2.647-3.095-5.09
					c-1.047,2.53-3.088,5.24-5.26,7.071c-2.176,1.829-4.461,2.77-6.143,1.791c0.219-5.313,5.15-5.176-0.09-7.51
					c3.553-3.334,7.984-7.451,6.255-0.141c1.554-1.916,3.651-3.213,5.204-5.05c0.341-6.168-5.676-5.604-7.466-6.753
					c0.535,0.726,1.136,1.65,0.979,2.868c0,0-0.785,0.254-1.964,0.636c-1.179,0.396-2.725,0.887-4.288,1.476
					c-3.124,1.151-6.185,2.383-6.185,2.383c0.339-3.204,2.353-4.689,4.374-6.093c-1.863-0.205-4.6,2.255-7.009,1.532
					c3.583-5.177,6.567-10.989,11.137-11.52c0,0-2.62,0.357-5.203,0.766c-1.288,0.188-2.589,0.452-3.557,0.639
					c-0.967,0.192-1.611,0.32-1.611,0.32c0.84-2.692-0.14-8.897,1.855-10.434c-0.576-1.438-1.843-1.847-3.444-1.749
					c-1.597,0.08-3.568,0.795-5.526,1.412c-3.943,1.276-7.834,2.35-9.52-1.243c-0.785,1.02-1.828,1.854-3.332,2.167
					c-2.225-1.858-3.694-5.252-5.861-7.383c-2.153-2.125-4.987-3.101-9.583-0.104c0,0,0.112-3.148,0.225-6.296
					c0.075-3.162,0.15-6.323,0.15-6.323c-2.949,0.302-2.902,4.354-3.403,8.416c-0.49,4.071-1.525,8.149-6.167,8.827
					c-6.742,1.577,1.034-10.516,0.015-14.435c-2.372,2.378-5.688,6.108-8.659,7.886c-1.49,0.887-2.899,1.283-4.104,0.754
					c-1.206-0.525-2.231-1.895-2.941-4.677C363.545,230.513,364.493,232.603,366.359,232.308z M302.967,226.153
					c1.287-1.722,4.113-7.108,4.748-1.982C305.74,233.894,304.983,229.128,302.967,226.153z M213.225,264.788
					c-0.508-2.938,1.416-2.312,4.205-0.034C216.738,265.883,215.493,266.132,213.225,264.788z M204.042,454.676
					c-0.091,0.033-0.158,0.061-0.263,0.115C204.451,451.639,204.145,452.813,204.042,454.676z M204.594,459.711
					c0.833-0.227,1.389-0.809,1.87-1.51c-1.22,0.787-1.851,0.109-2.17-1.014C203.34,458.467,202.912,459.619,204.594,459.711z
					 M450.931,371.65l1.055-1.344C454.474,370.998,452.783,371.276,450.931,371.65z"/>
				<path fill="#10783D" d="M218.174,249.367c0.908,1.202,1.626,2.648,2.338,4.117C220.396,251.949,219.768,250.386,218.174,249.367
					z"/>
				<path fill="#10783D" d="M404.713,243.202c0.033,0.087,0.102,0.094,0.141,0.167c0.288-0.39,0.535-0.809,0.756-1.231
					L404.713,243.202z"/>
				<path fill="#10783D" d="M122.251,417.211c0.715-1.398,1.872-2.295,3.152-2.977C123.638,414.452,122.232,415.274,122.251,417.211
					z"/>
				<path fill="#10783D" d="M224.805,469.838l-2.594-0.977c1.012,0.779,0.604,2.021,0.536,3.164
					C223.453,471.029,224.21,469.264,224.805,469.838z"/>
				<path fill="#10783D" d="M227.309,510.348c0.672-0.225,0.855,0.453,1.521,0.223l0.955-1.809
					C228.104,507.838,226.061,508.553,227.309,510.348z"/>
				<path fill="#10783D" d="M216.201,485.139c-2.437,3.561-0.118,3.607,1.893,4.342c-0.102-0.068-0.212-0.117-0.276-0.24
					C221.731,484.918,219.022,485.012,216.201,485.139z"/>
				<path fill="#10783D" d="M218.541,489.682c0.611,0.242,1.18,0.566,1.549,1.121C221.624,489.074,219.779,489.918,218.541,489.682z
					"/>
				<path fill="#10783D" d="M210.049,461.609c-0.298,1.57,4.542-3.945,3.497-2.16c2.356-1.799,0.28-1.619-1.85-0.813
					C209.564,459.445,207.425,460.871,210.049,461.609z"/>
				<polygon fill="#10783D" points="209.028,497.424 211.585,492.756 208.057,495.398 				"/>
				<path fill="#10783D" d="M198.502,483.402l1.497,3.48c0.576-0.746,1.258-0.871,1.919-0.83
					C200.489,484.49,199.57,482.09,198.502,483.402z"/>
				<path fill="#10783D" d="M201.918,486.053c0.73,0.826,1.627,1.385,2.655,1.092C204.096,486.799,202.996,486.139,201.918,486.053z
					"/>
				<polygon fill="#10783D" points="204.237,495.811 204.129,494.277 202.467,492.414 				"/>
				<path fill="#10783D" d="M175.862,455.18c0,0-0.903-0.488-1.806-0.979c-0.887-0.504-1.753-1.039-1.752-1.039
					c-2.11,0.906-2.763,2.557-1.229,3.227C172.904,456.25,174.388,456.879,175.862,455.18z"/>
				<path fill="#10783D" d="M168.869,475.068c0.301-1.672,1.357-2.615,2.605-4.389l-6.244,4.813L168.869,475.068z"/>
				<path fill="#10783D" d="M159.747,466.82c-2.064,0.996-9.223-1.303-5.401,2.77C156.497,468.691,160.598,470.947,159.747,466.82z"
					/>
				<path fill="#10783D" d="M146.421,406.635l0.266,0.977l15.297-2.202c0,0-3.885,0.321-7.771,0.642
					C150.317,406.344,146.421,406.635,146.421,406.635z"/>
				<path fill="#10783D" d="M113.318,342.037c-5.535,4.744,9.394,4.524,3.27,8.321c3.46,2.427,4.973-3.069,7.899-0.675
					C121.468,345.117,124.286,343.982,113.318,342.037z"/>
				<path fill="#10783D" d="M124.487,349.683c0.492,0.732,1.116,1.533,2.002,2.437C125.733,350.867,125.083,350.173,124.487,349.683
					z"/>
				<path fill="#10783D" d="M430.921,511.445c0,0-0.643,0.305-1.283,0.652c-0.635,0.365-1.298,0.65-1.298,0.652
					c0,0,0.107-0.041,0.27-0.102c0.163-0.057,0.379-0.139,0.589-0.24c0.425-0.178,0.85-0.357,0.85-0.357L430.921,511.445z"/>
				<path fill="#10783D" d="M425.952,514.219c0,0-0.168,0.023-0.335,0.047c-0.167,0.029-0.332,0.072-0.332,0.072
					s-0.401,0.221-0.812,0.41c-0.408,0.193-0.825,0.355-0.825,0.355C424.277,514.863,425.477,514.354,425.952,514.219z"/>
				<path fill="#10783D" d="M293.376,202.504l-0.287,2.784c0.584,3.034,1.447,3.283,3.178,3.803c0,0-0.714-1.646-1.428-3.293
					C294.107,204.151,293.376,202.504,293.376,202.504z"/>
				<polygon fill="#10783D" points="341.829,216.706 341.061,216.308 340.722,226.737 				"/>
				<path fill="#10783D" d="M384.179,215.789c-0.728-0.508-1.729-0.415-2.726-0.318c-1.004,0.118-2.006,0.247-2.744-0.241
					c2.012-0.258,2.554,2.896,2.975,4.613C382.111,221.546,382.466,221.795,384.179,215.789z"/>
			</g>
		</g>
	</g>
</g>
<g>
	<g>
		<g>
			<g>
				<path fill="#A97C50" d="M155.755,717.453c-0.677-0.26-0.434-0.163-0.536-0.207C156.365,717.785,155.723,717.408,155.755,717.453
					z"/>
				<path fill="#A97C50" d="M166.709,718.833l-0.128,0.356c0.007,0.034,1.456-0.806,1.448-0.84c0,0-0.329,0.129-0.657,0.258
					C167.041,718.72,166.709,718.833,166.709,718.833z"/>
				<path fill="#A97C50" d="M177.094,719.43c-0.813-1.416-1.702-1.239-2.675-0.931c-0.966,0.33-2.032,0.727-3.028,0.313l-0.4-0.491
					c0,0-0.121,0.42-0.242,0.84c-0.128,0.395-0.256,0.789-0.256,0.789c1.112-0.002,2.335-0.288,3.486-0.521
					C175.13,719.194,176.209,719.017,177.094,719.43z"/>
				<path fill="#A97C50" d="M184.513,726.732c-0.708-1.39,1.018-0.897-1.513-0.668c0.17,0.163,0.23,0.251,0.335,0.369
					C183.576,726.463,183.913,726.527,184.513,726.732z"/>
				<path fill="#A97C50" d="M183.335,726.434C182.16,726.288,184.387,727.66,183.335,726.434L183.335,726.434z"/>
				<path fill="#A97C50" d="M188.651,726.542c0-0.001-0.302,0.283-0.613,0.537c-0.312,0.252-0.624,0.504-0.624,0.504
					c0.552,0.89,2.049,1.379,1.683,1.897C190.565,729.077,189.955,728.076,188.651,726.542z"/>
				<path fill="#A97C50" d="M189.343,723.859l-0.635,0.523C188.949,724.76,189.201,724.917,189.343,723.859z"/>
				<path fill="#A97C50" d="M187.329,725.392c0,0,0.353-0.229,0.697-0.481c0.341-0.264,0.682-0.527,0.682-0.527
					c-0.396-0.642-0.747-1.855-0.657,0.371C187.884,723.644,187.851,724.713,187.329,725.392z"/>
				<path fill="#A97C50" d="M186.216,724.722c-1.078-0.893-2.279-1.407-1.088-2.541c-1.367,0.183-1.803,0.833-1.548,1.431
					C183.835,724.212,184.802,724.799,186.216,724.722z"/>
				<path fill="#A97C50" d="M176.945,716.487l-1.226-0.711c0,0-0.172,0.253-0.345,0.505c-0.175,0.244-0.351,0.488-0.351,0.488
					C175.369,716.27,177.212,717.365,176.945,716.487z"/>
				<path fill="#A97C50" d="M199.229,729.807c-0.21-0.977-1.356-2.642-1.854-3.876c0,0-0.201,0.27-0.403,0.538
					c-0.205,0.26-0.411,0.52-0.411,0.52C197.357,727.674,198.687,728.34,199.229,729.807z"/>
				<path fill="#A97C50" d="M197.375,725.931c0,0,0.297-0.413,0.593-0.826c0.29-0.426,0.581-0.853,0.581-0.853
					C196.975,724.073,196.948,724.864,197.375,725.931z"/>
				<path fill="#A97C50" d="M188.389,719.498c0,0-0.446,0.796-0.917,1.533c-0.465,0.752-0.965,1.409-0.965,1.408
					c0,0,0.628-0.661,1.217-1.432c0.596-0.75,1.16-1.582,1.16-1.582L188.389,719.498z"/>
				<path fill="#A97C50" d="M206.142,730.441l-0.182,2.422c0,0,0.14-0.907,0.28-1.814c0.124-0.937,0.248-1.874,0.248-1.874
					s-0.084,0.321-0.169,0.642C206.23,730.129,206.142,730.441,206.142,730.441z"/>
				<path fill="#A97C50" d="M210.536,730.111c0.027,2.17,2.425,3.805,2.101,5.125c1.155-0.294,1.529-2.2,1.82-3.97
					C213.807,732.248,212.593,731.953,210.536,730.111z"/>
				<path fill="#A97C50" d="M215.058,728.629c-0.278,0.593-0.423,1.591-0.602,2.638
					C214.797,730.735,215.043,729.978,215.058,728.629z"/>
				<path fill="#A97C50" d="M201.618,724.736c0.343,0.632,1.15,2.293,2.378,3.029l-1.689-2.991
					C202.098,724.763,201.859,724.75,201.618,724.736z"/>
				<path fill="#A97C50" d="M202.252,724.68l0.056,0.095c0.751,0.051,1.283,0.11,1.513,0.141
					C203.623,724.886,203.15,724.814,202.252,724.68z"/>
				<path fill="#A97C50" d="M201.443,724.725c0.065,0.006,0.113,0.013,0.175,0.012C201.457,724.447,201.386,724.352,201.443,724.725
					z"/>
				<path fill="#A97C50" d="M193.306,721.572c0.27-0.73,0.782-1.518,0.886-2.423c0.107-0.898-0.193-1.9-1.465-2.907
					C192.6,718.101,194.097,719.332,193.306,721.572z"/>
				<path fill="#A97C50" d="M199.42,721.106l-1.955-0.529c0.269,0.735,0.939,1.813,0.701,2.608c0,0,0.318-0.512,0.636-1.022
					C199.111,721.635,199.42,721.106,199.42,721.106z"/>
				<polygon fill="#A97C50" points="199.969,720.117 199.42,721.106 200.152,721.312 				"/>
				<path fill="#A97C50" d="M210.668,725.601c0.256-1.491,1.059-1.69,1.939-2.005c-1.296-0.588-2.486-0.841-3.488-0.742
					C209.362,723.906,209.585,725.777,210.668,725.601z"/>
				<path fill="#A97C50" d="M206.455,724.89c0.029-0.074,0.086-0.114,0.111-0.188C206.364,724.439,206.248,724.357,206.455,724.89z"
					/>
				<path fill="#A97C50" d="M222.092,722.433c-0.149-0.222-0.29-0.433-0.443-0.661c0.082,0.221,0.156,0.424,0.242,0.656
					L222.092,722.433z"/>
				<path fill="#A97C50" d="M208.723,722.257c-0.996-0.557-1.16,0.281-1.244,1.304c0.462-0.364,0.999-0.616,1.641-0.707
					C209.011,722.381,208.909,722.07,208.723,722.257z"/>
				<path fill="#A97C50" d="M217.165,726.834c-0.712-0.713-1.426-1.298-2.137-1.824
					C215.855,726.073,217.382,727.766,217.165,726.834z"/>
				<path fill="#A97C50" d="M207.141,725.564c-0.021,0.053-0.037,0.112-0.068,0.146
					C207.573,726.383,207.423,726.051,207.141,725.564z"/>
				<path fill="#A97C50" d="M207.141,725.564c0.243-0.472,0.277-1.276,0.338-2.004c-0.38,0.285-0.696,0.655-0.913,1.141
					C206.742,724.92,206.959,725.256,207.141,725.564z"/>
				<path fill="#A97C50" d="M214.014,697.063c0.738,1.825,1.058,3.753,0.783,4.8c-0.271,1.051-1.132,1.225-2.63-0.318
					c-0.16,1.595,1.137,5.085,3.011,8.963c1.873,3.878,4.353,8.174,6.47,11.264c-0.602-1.543-1.175-2.921-0.388-5.395
					c-0.719-0.906-2.133-1.813-3.333-2.905c-1.204-1.098-2.191-2.374-2.191-4.156c1.3-2.488,2.224,0.68,4.092,2.275
					c-1.411-2.096-1.436-3.913-1.586-6.072c-0.141-2.148-0.416-4.647-2.128-7.904c0,0-0.153,0.778-0.306,1.556
					c-0.163,0.769-0.326,1.536-0.326,1.536C215.006,699.702,214.881,697.781,214.014,697.063z"/>
				<path fill="#A97C50" d="M218.129,721.918l-0.557,0.521c1.072,0.475,2.213,1.736,4.48,4.326c0.563-1.796,0.244-3.171-0.161-4.337
					c0,0-0.946,0.033-1.903,0.024c-0.951,0.002-1.901,0.005-1.901,0.005L218.129,721.918z"/>
				<path fill="#A97C50" d="M214.3,722.861c-0.793-3.574,0.24-5.452-2.31-9.119c-1.874,0.714-0.227,3.276-0.867,5.005
					c1.486-0.724,1.441-0.191,1.417,0.716c-0.022,0.909-0.054,2.155,1.576,2.998c-0.443,0.681-0.985,0.93-1.508,1.135
					c0.784,0.354,1.59,0.814,2.42,1.414c-0.065-0.084-0.111-0.143-0.166-0.212l-0.012,0.013c-0.007-0.021-0.011-0.034-0.019-0.056
					c-0.322-0.424-0.475-0.686-0.207-0.447c-0.005-0.046,0.031-0.065,0.045-0.079c-0.168-0.493-0.271-0.928-0.363-1.348
					c1.289,0.614,0.52,0.902,0.363,1.348c0.055,0.172,0.093,0.343,0.161,0.526c0.011,0.02,0.021,0.031,0.03,0.043
					c0,0,0.686-0.575,1.372-1.149c0.678-0.588,1.338-1.21,1.338-1.21C216.633,722.029,215.771,722.271,214.3,722.861z"/>
				<path fill="#A97C50" d="M192.574,710.054c0.168,0.216,0.227,0.414,0.296,0.612C192.958,710.272,192.957,710.016,192.574,710.054
					z"/>
				<path fill="#A97C50" d="M194.341,711.389c-0.093,0.454,0.076,1.619-0.742,1.501c-0.885-0.674-0.409-1.319-0.729-2.224
					c-0.187,0.873-0.915,2.333,0.879,3.356l0.102-0.422c1.519,0.633,4.358,3.991,4.272,4.441
					C196.89,715.481,195.954,713.677,194.341,711.389z"/>
				<path fill="#A97C50" d="M203.612,715.682c0,0,0.524-0.527,1.047-1.056c0.513-0.546,1.026-1.092,1.026-1.092l-2.361-2.526
					l0.681,1.68C202.292,712.385,203.346,714.364,203.612,715.682z"/>
				<path fill="#A97C50" d="M223.234,724.28l1.323,4.077c0,0-0.177-1.475-0.353-2.949c-0.197-1.498-0.394-2.995-0.394-2.995
					L223.234,724.28z"/>
				<polygon fill="#A97C50" points="226.821,723.204 228.292,726.854 228.335,724.513 				"/>
				<path fill="#A97C50" d="M299.226,551.433l-1.658-1.135C298.036,550.734,298.604,551.1,299.226,551.433z"/>
				<path fill="#A97C50" d="M297.213,555.297l3.218,1.22C298.708,555.708,297.415,555.182,297.213,555.297z"/>
				<path fill="#A97C50" d="M312.766,683.125c5.269,3.514,13.225,9.262,7.863,4.159l-5.396-4.804
					C315.425,683.966,314.304,683.844,312.766,683.125z"/>
				<path fill="#A97C50" d="M317.111,608.886c-0.712-0.304-1.458-0.62-2.194-0.934c2.16,1.602,4.187,3.104,6.017,4.461
					C319.781,611.35,318.479,610.147,317.111,608.886z"/>
				<path fill="#A97C50" d="M289.72,591.879l4.955,1.461C293.017,592.705,291.37,592.208,289.72,591.879z"/>
				<path fill="#A97C50" d="M299.728,526.904l-6.979-1.911C292.431,526.063,296.216,526.213,299.728,526.904z"/>
				<path fill="#A97C50" d="M263.757,710.559c2.233,1.481,3.587,1.955,4.465,1.896C265.113,710.13,261.473,706.347,263.757,710.559z
					"/>
				<path fill="#A97C50" d="M375.701,578.058c-1.165-0.963-2.581-1.662-4.205-2.167
					C372.585,576.829,373.887,577.592,375.701,578.058z"/>
				<path fill="#A97C50" d="M271.203,711.199c-0.518-0.423-0.864-0.601-1.329-0.942c-0.193,1.151-0.519,2.133-1.651,2.197
					C270.515,714.183,272.499,715.076,271.203,711.199z"/>
				<path fill="#A97C50" d="M333.198,427.568c0.161-0.084,0.254-0.18,0.436-0.258C333.23,427.311,333.177,427.418,333.198,427.568z"
					/>
				<path fill="#A97C50" d="M355.637,396.394c0.073,0.316,0.119,0.801,0.174,1.25C355.853,397.444,355.801,397.079,355.637,396.394z
					"/>
				<path fill="#A97C50" d="M243.006,721.932C242.345,722.411,243.13,722.449,243.006,721.932L243.006,721.932z"/>
				<path fill="#A97C50" d="M230.553,705.761c-0.092-0.539-0.291-1.203-0.774-2.21C230.245,704.618,230.479,705.317,230.553,705.761
					z"/>
				<path fill="#A97C50" d="M256.175,676.166c0.017-0.012,0.043-0.004,0.063-0.018C255.356,675.278,255.521,675.445,256.175,676.166
					z"/>
				<path fill="#A97C50" d="M240.767,720.221c0.574,0.464,1.153,0.83,1.696,1.057C242.119,720.975,241.586,720.623,240.767,720.221z
					"/>
				<path fill="#A97C50" d="M241.994,722.26c-0.38-0.133-0.654-0.189-0.922-0.258C241.34,722.754,241.667,723.194,241.994,722.26z"
					/>
				<path fill="#A97C50" d="M244,721.406c-0.423,0.187-0.958,0.092-1.537-0.129c0.313,0.261,0.509,0.494,0.543,0.654
					C243.207,721.805,243.491,721.628,244,721.406z"/>
				<path fill="#A97C50" d="M332.936,484.143c0.189-0.039,0.314-0.088,0.57-0.13C331.196,483.245,331.536,483.561,332.936,484.143z"
					/>
				<path fill="#A97C50" d="M270.366,617.884c0.041,0.072,0.179,0.211,0.234,0.292c0.079,0.03,0.177,0.068,0.249,0.097
					L270.366,617.884z"/>
				<path fill="#A97C50" d="M267.353,612.547c6.604,6.724,5.377,6.439,3.495,5.726l16.793,13.389c0,0-5.049-4.793-10.097-9.586
					C272.449,617.311,267.353,612.547,267.353,612.547z"/>
				<path fill="#A97C50" d="M300.804,541.035c0,0-1.746-0.062-3.492-0.122c-1.748-0.08-3.496-0.16-3.496-0.16
					c-10.156-4.261-5.988-4.331-15.631-5.438c11.296,2.83,11.432,4.248,11.506,5.589c0.088,1.359,0.182,2.709,11.516,5.999
					l-5.11-0.474c0.313-0.186-1.014-0.605-0.692-0.784c-5.766-0.717-1.769,0.735,3.166,2.609c4.941,1.861,10.811,4.139,8.723,4.792
					c-2.064,0.266-5.564-0.248-8.066-1.614c0,0,1.242,0.87,2.483,1.741c1.241,0.888,2.481,1.775,2.481,1.775
					c-0.635,0.367-4.535-1.059-3.91-1.407l0.813,3.225l-0.662-0.25c3.444,1.59,8.563,4.414,10.705,5.705
					c-3.556-0.441-2.252-1.216-5.158-2.034l4.831,3.529c-6.138-1.522-11.29-4.854-9.999-5.556
					c-11.625-3.328-10.327-2.58-7.947-1.141c2.392,1.414,5.82,3.552-1.379,2.505l-2.289-2.408
					c-13.234-3.98-8.987-1.243-17.575-3.006c2.153,0.668,7.477,1.961,12.908,3.463c5.429,1.513,10.956,3.249,13.437,5.139
					c-1.9-0.193-2.928,0.044,1.219,2.736c-8.016-3.171-6.426-1.551-6.449-0.297l-10.557-4.391c2.554,2.342,7.979,4.486,12.438,7.152
					c-1.617,0.871-9.907-2.335-16.921-5.021c-1.28,0.486,2.14,1.62,6.007,2.96c3.867,1.344,8.178,2.875,8.614,4.444
					c-4.778-0.161-0.95,2.781,4.317,7.733c-4.156-0.56-6.248-3.216-9.429-4.222l7.765,4.959c-0.324,0.154-2.818-1.158-4.078-1.818
					c2.766,2.407,10.308,5.08,12.396,7.889c5.58,3.011,1.047,1.725-3.334,0.605c-4.367-1.09-8.633-2.091-2.72,2.148
					c-3.103-1.122-6.116-3.521-10.114-5.484c3.582,3.331,4.816,4.663,6.445,6.126c1.613,1.471,3.652,3.087,8.615,7.196
					c0,0-1.881-0.515-3.763-1.029c-1.871-0.531-3.741-1.062-3.741-1.062c8.174,3.1,16.147,9.706,22.437,15.546
					c3.863,1.64,7.261,3.056,8.931,3.641c0,0,0.949,1.423,1.899,2.847c0.935,1.438,1.869,2.877,1.869,2.877
					c-1.801-0.656-5.01-2.964-8.877-5.837c0.711,0.656,1.418,1.302,2.084,1.877c-4.159-1.289-9.517-5.217-14.668-9.116
					c2.207,0.934,4.414,1.867,6.567,2.778c-5.643-4.171-12.006-8.593-17.87-11.883c1.061,0.812,1.884,1.665,2.259,2.295
					c-1.547-1.108-2.951-2.058-3.977-2.578c-1.084-0.544,0.98,0.974,3.288,2.838l-11.235-6.088l4.286,2.736
					c0,0-2.085-0.326-4.2-0.711c-2.091-0.39-4.182-0.779-4.182-0.779c4.882,4.351,11.002,9.545,16.14,14.49
					c5.136,4.938,9.209,9.595,10.185,12.827c-7.08-6.114-12.392-8.765-21.42-15.057c5.073,2.873,4.458,1.533,2.922-0.502
					c-1.533-2.045-4.003-4.773-2.541-4.937c-1.535,0.175-5.82-2.91-7.24-4.119c0,0,0.454,0.539,1.135,1.347
					c0.664,0.809,1.551,1.886,2.437,2.964c1.749,2.19,3.497,4.38,3.497,4.38c-7.413-5.135-5.96-3.201-9.458-4.594
					c14.974,9.552,8.386,8.908,11.942,13.232c-4.855-3.418-9.582-7.246-7.496-7.779c-5.945-3.11-2.01,0.374,2.047,4.075
					c4.072,3.687,8.268,7.585,3.193,5.009c0.124-0.438,0.99-0.087-1.34-2.011c3.666,3.948-1.072,3.474-4.828-0.122l0.135-0.414
					c-1.607,0.505-2.822,2.156-2.24,4.934c0.602,2.784,2.836,6.641,8.347,11.523c-1.472-1.196-13.413-11.625-15.621-13.644
					c0,0,8.854,8.837,17.39,17.863c8.573,9.013,16.8,18.186,16.8,18.186c-4.549-4.302-12.781-10.969-20.285-17.41
					c-7.512-6.438-14.335-12.634-16.386-15.849c-1.729-0.64-3.703-1.378-1.229,2.595c1.569,0.841,14.245,11.046,14.687,12.297
					c-5.783-3.913-7.332-4.924-8.744-5.715c-1.4-0.797-2.664-1.375-7.627-4.526c2.375,1.263,16.297,14.915,15.052,15.387
					c-2.019-2.098-14.102-12.892-15.352-14.559c0,0,3.112,3.73,6.152,7.492c3.033,3.746,5.988,7.517,5.988,7.517
					c-2.009-2.864-11.604-11.079-15.806-14.306c2.837,2.336-1.612,1.513-0.696,3.347l3.802,2.164
					c-1.94,0.167,2.297,5.343,6.568,10.707c4.27,5.343,8.584,10.877,7.051,11.702c-2.342-3.02-15.785-17.459-18.37-17.987
					c3.053,3.645,10.411,12.389,17.143,21.159c6.768,8.783,12.799,17.521,13.898,21.183l-4.037-3.504c0,0,0.521,1.503,1.043,3.005
					c0.502,1.505,1.005,3.009,1.005,3.009c-3.403-4.923-9.565-13.835-16.062-23.229c-5.609-7.989-11.484-16.356-15.532-22.121
					c-3.619-2.225-4.517-4.324-5.21-2.725c-3.748-3.211-4.628-6.197-4.588-6.793c0,0-1.08,0.154-2.179,0.27
					c-1.081,0.127-2.162,0.253-2.162,0.253c7.39,7.833,5.458,10.2,11.408,16.74c0,0-1.114-2.864-2.31-5.717
					c-1.188-2.854-2.458-5.695-2.458-5.695c3.719,3.903,8.558,9.996,11.922,15.216c3.377,5.212,5.277,9.573,3.551,9.897
					c-3.313-2.661-12.056-14.599-14.477-17.214c2.2,3.001,2.788,7.18,0.938,5.418l-2.894-5.136c-1.789-0.934,0.093,2.178,1.391,4.74
					c1.313,2.563,2.031,4.577-1.755,1.457c-0.885-0.029-9.683-8.897-5.897-4.09c8.022,8.349,31.49,36.376,36.337,43.701
					c-0.365-0.229-3.004-1.813-6.016-3.837c-3.025-2.029-6.404-4.489-8.486-6.472c-3.259-3.186-6.19-7.7-9.092-12.114
					c-2.889-4.413-5.745-8.725-8.477-11.454c1.691,2.202,3.368,5.307,3.851,6.343c-1.946-1.363-5.051-6.931-5.325-4.878
					c6.025,8.222-2.775,1.408,4.707,7.286c0.611,3.293-2.458-0.592-3.491,0.938c2.127,2.399,5.114,7.067,7.535,11.528
					c2.428,4.46,4.282,8.722,4.396,10.316c-1.376-2.078-3.577-4.505-4.579-5.604c-1.614,0.595-3.406,0.253-5.082-0.015
					c-1.68-0.269-3.234-0.448-4.499,0.376c-1.495-1.732-4.128-3.147-5.836-6.857c0.577,1.637,1.979,4.499,1.359,5.233
					c-5.681-5.596,0.915-2.284-5.345-9.495c2.852,4.571,2.228,7.667,2.899,11.209c4.638,6.635,3.367-0.442,2.511-4.06
					c3.145,4.801,5.898,10.053,7.76,14.83c1.863,4.771,2.856,9.108,2.615,12.025c-1.084,3.521-4.786-5.539-4.402-3.995
					c-2.735,0.354-1.282,4.892-0.237,8.682c1.061,3.783,1.705,6.811-2.217,4.341c-2.435-2.559-4.017-5.383-5.369-8.093
					c-1.345-2.707-2.457-5.298-3.775-7.282c0.326-1.588,1.546-1.069,2.871-0.241c1.316,0.82,2.744,1.966,3.318,1.492l-3.195-1.926
					c-0.499-2.233-0.179-4.439,1.489-3.132c-1.078-1.155-2.077-1.517-3.079-1.482c-1.009,0.023-2.015,0.457-3.078,0.94
					c-1.062,0.486-2.181,1.021-3.387,1.264c-1.212,0.232-2.528,0.137-3.922-0.551c0.417,2.183,0.379,4.61,2.003,6.567l0.663-1.305
					c1.662,1.985,1.976,3.782,2.144,5.233c0.174,1.456,0.215,2.575,1.478,3.309c0.112,3.769,0.676,9.204-2.86,7.464l-3.364-5.877
					c0.89,1.729,3.22,3.081,2.926,1.004c0.208,1.517-1.677-0.247-3.188-1.301c-1.521-1.063-2.676-1.421-1.345,2.627l3.548,3.58
					c-0.139,3.563,0.58,10.268-2.475,8.851c3.586,5.462,0.184-0.761,4.854,5.612c-5.253-8.057,5.896-0.788-0.565-9.271
					c2.694,3.785,3.824,4.495,4.933,5.031c1.116,0.538,2.219,0.928,5.07,4.192c-1.09-2.014-2.71-3.696-0.326-3.146
					c-0.218-0.617-0.407-1.426-0.509-1.902c0.085,0.039,0.123,0.069,0.205,0.121c-0.082-0.078-0.145-0.139-0.227-0.217
					c-0.077-0.326-0.103-0.393-0.082-0.074c-0.899-0.782-1.796-1.76-2.513-2.854c-1.469-4.913,1.346-5.699,0.944-8.518
					c1.547,0.64,0.848,2.55,2.595,4.592l-0.602-4.208c1.332,2.323,3.074,4.035,4.383,5.624c1.306,1.589,2.177,3.064,1.632,4.824
					l2.442-0.482c2.845,2.263,5.437,2.813,5.434,0.396c1.751,0.735-0.386-6.318,0.91-2.161c0,0,0.448-1.081,0.896-2.162
					c0.429-1.095,0.857-2.188,0.857-2.188l0.782,1.229c1.958-0.331,2.508-3.062,3.631-4.906c1.156-1.82,2.938-2.653,8.022,1.144
					c0.328-1.777,0.354-3.991,3.274-3.433l3.502,4.322c0.206-1.135,2.121-0.534,3.691-0.269c1.568,0.272,2.758,0.181,1.352-2.353
					c5.256,5.729,7.66,5.473,9.217,3.885c1.582-1.57,2.194-4.569,4.376-4.197l-4.653-6.063c2.022-0.656,2.333-3.354,2.387-7.102
					l-4.539-5.238c-0.971-2.769,0.867-2.573,3.302-1.986c2.413,0.574,5.486,1.595,6.57,0.321c1.622,2.167,0.464,2.143-1.108,1.243
					c6.906,4.87,6.783,1.396,6.057-2.408c-0.354-1.906-0.843-3.906-0.561-5.02c0.273-1.127,1.311-1.378,4.102,0.233
					c-1.139-2.479-0.03-2.242,1.754-1.316c-0.053,0.064-0.016,0.21,0.096,0.417c0.133,0.004,0.25-0.071,0.348-0.172
					c1.193,0.652,2.547,1.445,3.728,2.002c-1.556-1.034-2.87-1.858-3.59-2.146c0.432-0.551,0.61-1.875,0.087-3.843l5.97,5.344
					c-0.008-0.128,0.06-0.159,0.029-0.314c2.883,1.398-2.063-3.198-6.717-7.072c-0.546-1.264-1.323-2.684-2.435-4.277
					c4.896,4.259,4.635,3.049,4.449,1.896c-0.177-1.154-0.282-2.25,5.158,2.175c-2.188-2.572-2.141-4.298-2.852-6.672
					c-0.723-2.389-2.202-5.401-7.345-10.441c1.407,1.244,2.269,1.642,1.987,2.095c1.965,0.34,3.977,0.653,1.611-2.762l8.12,6.608
					c0,0-2.202-2.758-4.404-5.515c-2.238-2.744-4.477-5.488-4.477-5.488c5.758,3.153,9.072,5.103,14.141,11.479
					c-3.442-5.38-3.876-6.647-4.32-7.884c-0.457-1.227-0.921-2.412-4.738-7.461l5.185,4.476c0.258-0.479-1.1-2.491-1.943-3.986
					c-0.854-1.508-1.18-2.496,1.24-0.955c5.836,3.195,8.212,1.224,10.671-1.264c2.412-2.552,5.022-5.45,11.984-4.529
					c-8.874-5.387-6.544-4.651-3.612-3.747c2.937,0.907,6.499,1.935-0.113-2.646c4.277,2.44,7.12,3.234,10.057,6.466
					c-1.026-2.687,1.287-2.641,2.633-3.124c1.343-0.471,1.72-1.459-3.419-6.031c4.404,2.315,5.724,4.445,8.386,5.723
					c-0.746-0.799-3.037-3.172-0.344-1.906c2.685,1.263,3.238,2.604,4.749,4.205c1.3-3.414-11.536-11.604-23.643-19.212
					c6.612,2.142,6.269,0.888-1.261-4.837c4.312,1.904,9.047,3.528,9.47,6.115c0.582-0.312,2.954-0.946,3.952-2.249
					c1.002-1.3,0.529-3.277-4.473-6.08c2.723,1.096,1.499-0.968,0.47-1.85c1.781-1.872,2.857-1.574,2.999-4.268l-1.975-0.249
					c-11.927-7.18-1.882-3.183-2.513-5.69l1.252,0.679c5.47,0.195,4.619-0.802,3.901-1.659c-0.702-0.877-1.287-1.615,4.801-1.286
					l-7.927-3.372c-8.336-4.062-5.485-3.739-1.19-3.153c4.283,0.605,10.063,1.396,7.279-1.174l-4.863-1.094
					c-2.628-1.875,3.473-0.258,10.623,1.669c7.142,1.939,15.301,4.188,16.631,3.925c1.602,0.304,2.203,1.452,3.141,2.333
					c11.455,0.426-10.22-4.739-11.634-8.345c5.806,1.742,14.048,6.37,15.781,4.915c2.446,0.416-1.627-2.796-4.877-5.798
					c-3.247-3.021-5.707-5.824,0.146-5.151c-4.547-0.993-9.078-2.054-11.931-4.464c-0.447-1.211,4.107-1.027,7.078-1.5
					c2.987-0.44,4.448-1.463-2.187-4.586c1.267,0.135,2.439,0.405,3.53,0.744c-3.118-2.684-4.493-6.803-11.813-9.851
					c14.05,3.396,11.213-0.056,8.07-3.162c-3.148-3.132-6.58-5.977,6.161-2.798l-0.555-5.028l2.573,0.72
					c2.182-2.665-3.729-5.075-9.616-7.352c1.83-0.309,4.113,0.669,5.434,1.005c5.71-3.242,4.568-4.117-7.405-9.856l8.154,1.062
					c-2.28-0.903,1.073-1.881,3.783-3.441c2.747-1.545,4.823-3.717,0.324-6.495c0.896,0.167,2.43,0.47,3.529,0.97
					c-4.492-3.055,1.045-5.114,4.084-7.301c3.04-2.16,3.503-4.311-10.459-6.578l-6.797-3.7c-1.124,1.836-4.15,1.381-7.445,0.636
					c-3.301-0.749-6.854-1.772-9.222-1.238c-1.465-1.572,8.593-3.014,9.895-1.069l-1.395,0.159
					c14.345,2.01,5.264-4.312,14.862-3.419c-0.233-1.939,0.065-3.821,0.628-5.679c0.569-1.855,1.394-3.695,2.147-5.501
					c1.547-3.614,3.193-7.242,2.928-10.788l-9.828,0.467l0.369-2.428c2.231-0.568,7.549-0.632,7.37,1.127
					c2.733-0.372,1.453-1.159-0.732-1.853c-2.19-0.696-5.284-1.299-6.339-1.354c1.813-1.653,4.612-1.254,7.048-0.551
					c2.428,0.701,4.479,1.704,4.516,1.172l-0.938-1.471l-1.077,0.296c-4.095-1.277-8.218-1.485-8.006-3.559
					c1.718-1.279,5.699-0.553,5.982-1.068c0.664,0.018,0.943-0.154,0.136-0.798l0.268-3.077l-7.042,1.107
					c-3.73-1.418,0.065-2.863-7.936-1.588c6.231-0.93,6.896-3.767,6.54-6.488c-0.351-2.727-1.677-5.362-0.032-5.975
					c-5.03-1.886-5.083-3.719-4.877-5.996c-1.183,0.565-8.116,0.893-7.385-1.062c7.07,0.362,8.486-0.538,9.287-1.724
					c0.801-1.182,1.081-2.65,5.667-3.445c-6.028,1.418-2.787-5.554-10.991-3.325c0.788-1.631,4.755-0.107,7.466-1.35
					c-2.851-1.933-2.442-4.053-1.907-6.295c0.279-1.119,0.614-2.268,0.69-3.434c0.045-1.316-0.148-2.837-0.874-4.108
					c-1.351-0.028-3.23,0.893-5.478-0.128c0,0,1.535-0.73,2.986-1.484c1.412-0.746,2.823-1.492,2.823-1.492
					c-0.493-0.471-2.396-0.598-3.681-0.855c-1.295-0.256-1.93-0.65-0.085-1.643c-0.938,0.3-2.404,0.76-2.955,0.146
					c0.877-2.414,0.48-4.73-0.222-6.97c-0.713-2.245-1.783-4.468-2.552-6.684c-0.421-1.125-0.739-2.226-0.985-3.338
					c-0.29-1.129-0.391-2.204-0.473-3.31c-0.079-1.102,0.011-2.143,0.084-3.214c0.161-1.016,0.282-2.063,0.498-3.044
					c-0.535,0.984-0.805,0.174-0.89-0.746c-0.121,0.546-0.908-0.276-1.388-0.304c0,0,0.395-0.831,0.649-1.7
					c0.355-0.814,0.543-1.706,0.543-1.706c-0.211-0.273-0.304-0.676-0.315-1.136c0.023-0.438,0.116-0.938,0.209-1.442
					c0.092-0.517,0.181-1.022,0.253-1.429c0.102-0.393,0.17-0.702,0.155-0.838c0,0-0.103,0.301-0.205,0.603
					c-0.113,0.291-0.148,0.627-0.147,0.627c-0.006-0.963-0.287-0.489-0.967-0.008c-0.637,0.494-1.721,1.029-2.139,0.679
					c-0.166,0.478-0.379,0.998-0.844,1.489c-0.433,0.501-1.11,0.995-1.748,1.569c-1.216,1.136-2.987,2.541-2.124,4.454
					c-0.858,0.585-0.51-0.763-1.265-0.517c0.305,0.516,0.417,1.023,0.293,1.622c-0.09,0.595-0.417,1.275-1.086,2.156l-0.24-0.254
					c-0.499,1.317-0.857,2.424-1.334,3.465c-0.483,1.048-0.974,1.991-1.537,2.973c-0.574,0.988-1.213,2.004-1.896,3.139
					c-0.711,1.15-1.458,2.439-2.241,3.943l2.612-0.5c-0.62,1.277-1.5,1.581-2.315,2.204c3.643,1.321,1.083-3.6,4.964-2.365
					c-1.322,0.438-2.131,1.223-2.686,2.175c-0.544,0.933-0.797,2.024-1.067,3.103c-0.537,2.123-1.116,4.175-4.897,4.912
					c-0.269,0.929,0.698,0.738,1.649,0.549c0.953-0.189,1.892-0.379,1.697,0.546l-2.134,0.608l2.544,0.307
					c-0.646,1.197-3.45,1.924-5.283,2.061c0.295-0.291-0.268-0.77-0.323-1.063c-1.469,0.798-1.626,1.904-1.476,2.717
					c0.14,0.84,0.583,1.564,0.066,1.814c0,0,0.477-0.402,0.953-0.805c0.466-0.407,0.932-0.814,0.932-0.814
					c0.091,0.549,0.109,1.121,0.071,1.699c-0.054,0.529-0.161,1.069-0.3,1.613c-0.138,0.485-0.315,1.215-0.488,1.898
					c-0.173,0.687-0.347,1.377-0.52,2.065c-0.646,2.752-0.937,5.502,1.414,7.888l2.196-0.368c1.634,1.83,0.958,2.565-0.067,3.346
					c-1.004,0.78-2.351,1.604-1.744,3.615l-0.52-0.146c2.132,0.806,3.15,1.871,2.714,2.968c-2.565-1.01-5.78,1.892-8.6,0.566
					c1.918,1.97,2.811,2.461,4.226,2.785c1.438,0.324,3.387,0.48,7.857,1.804l-4.216,0.587c3.644,0.905,5.638,0.988,6.564,2.991
					c-1.759-0.83-3.392-0.52-5.207-0.237c-1.801,0.282-3.796,0.535-6.039-0.388c-5.065,2.043-3.074,3.584-1.396,4.863
					c1.639,1.271,2.905,2.282-4.565,3.123c12.276,2.069,7.544-3.491,10.03-2.397c2.072-0.427,4.309-0.009,5.905,0.685
					c1.591,0.692,2.539,1.659,1.85,2.306c-0.191,0.666-4.284,1.175-8.428,1.919c-4.133,0.745-8.35,1.72-8.563,3.357
					c0.127-0.324-0.859-0.367-0.736-0.69c-1.796,0.578-0.799,1.198-0.044,1.854c0.747,0.652,1.258,1.347-1.69,2.014
					c7.988,1.051-0.873,1.91,9.58,2.457c0,0-0.493-0.77-0.986-1.539c-0.479-0.768-0.958-1.535-0.958-1.535
					c1.197,0.885,4.802,1.81,7.363,2.863c2.553,1.051,4.092,2.236,0.916,3.558c-2.145-0.299-4.875-1.237-6.358-1.861
					c-3.265,0.717,1.866,1.656-1.505,2.395c-5.379-0.318-5.787-1.239-5.839-2.346c-0.046-1.105,0.233-2.404-3.543-3.409
					c-4.643,0.732,6.907,3.624-4.345,2.371c7.134,0.87,6.55,1.662,5.453,2.532c-1.081,0.874-2.686,1.827,2.843,3.144l-6.524-0.408
					c0.946,0.378,3.907,1.214,3.613,1.837l-8.287-1.492c3.42,1.009,1.647,1.778-0.599,2.494c-2.235,0.721-4.944,1.387-3.138,2.303
					c0.365-1.703,2.428-1.799,5.063-1.615c2.633,0.182,5.867,0.654,8.448,0.029c8.228,4.8-18.138,1.611-16.255,6.347
					c-0.787-0.671,4.788-2.082,7.715-0.909c-1.631,0.806-4.589,1.801-8.406,2.081c0.293,1.559,2.144,1.578,4.391,1.394
					c2.251-0.181,4.885-0.577,6.886,0.237c-8.796,0.447,3.119,1.769,5.649,3.393l-7.221-0.554
					c-5.502,3.128,14.921,2.187,8.642,4.945l-9.876-2.245l2.247,1.871l-8.284-1.096c5.754,2.31,4.055,2.75,1.231,4.207
					c5.345,0.135,13.513,1.632,13.421,3.24c-4.718,0.564-7.008-1.371-6.47,0.916c-4.619-1.044-10.364-2.196-3.187-2.363
					c-2.42-0.359-4.579-0.979-6.967-1.333c-5.441,0.529-2.024,2.542-2.135,3.315c0.365-0.253,0.87-0.549,2-0.601
					c0,0,2.428,1.073,4.854,2.146c2.454,1.105,4.909,2.212,4.909,2.212c-2.988,0.124-5.208-0.567-7.365-1.228
					c0.664,0.719,4.075,1.605,4.517,2.62c-6.188-1.072-12.661-1.89-15.21-3.491l6.084,3.715c-2.779-0.185-7.98,0.324-10.183-0.364
					c-2.12,0.457,0.591,1.786,3.229,3.228c2.618,1.428,5.118,2.977,2.329,3.551c1.208,0.313,2.325,0.722,3.103,1.304
					c-1.034,0.806-3.664,1.247-5.033,1.939c-1.375,0.698-1.463,1.645,2.658,3.651c0,0-3.006-0.296-6.012-0.592
					c-3.023-0.326-6.047-0.652-6.047-0.652c1.014,1.051,4.843,1.476,8.829,2.034c3.989,0.568,8.134,1.271,9.859,3.201
					c3.055,2.885-10.221-1.469-13.722-1.525c2.773,1.137,7.018,2.837,9.309,4.239c2.276,1.386,2.645,2.515-2.478,2.179
					C299.604,541.852,301.479,541.811,300.804,541.035z M298.126,562.729c-1.514-1.055-6.398-3.787-1.533-2.285
					C305.61,564.354,301.052,563.079,298.126,562.729z M300.984,603.498c-2.249-1.806-0.762-1.505,2.349-0.339
					C303.715,603.916,303.156,604.183,300.984,603.498z M249.443,715.342c-0.023-0.091-0.042-0.159-0.081-0.27
					C251.76,716.672,250.865,716.027,249.443,715.342z M245.616,713.978c0.131,0.797,0.532,1.494,1.032,2.168
					c-0.521-1.344,0.006-1.627,0.871-1.483C246.586,713.379,245.755,712.578,245.616,713.978z M375.416,477.641l-1.541,0.449
					C371.951,476.964,373.591,477.302,375.416,477.641z"/>
				<path fill="#A97C50" d="M292.894,593.85c1.324,0.634,2.732,1.42,4.153,2.22C295.882,595.177,294.429,594.327,292.894,593.85z"/>
				<path fill="#A97C50" d="M301.013,527.259c0.072-0.01,0.055-0.035,0.11-0.048c-0.458-0.116-0.929-0.216-1.396-0.307
					L301.013,527.259z"/>
				<path fill="#A97C50" d="M246.188,647.906c0.937,0.5,1.928,1.368,2.894,2.331C247.997,648.821,246.929,647.787,246.188,647.906z"
					/>
				<path fill="#A97C50" d="M235.628,725.861l1.19-1.558c-0.745,0.399-1.546-0.568-2.328-1.222
					C235.051,724.164,236.15,725.684,235.628,725.861z"/>
				<path fill="#A97C50" d="M209.677,702.431c-0.004,0.586-0.418,0.233-0.419,0.823l0.821,1.869
					C210.944,704.673,210.926,702.872,209.677,702.431z"/>
				<path fill="#A97C50" d="M226.765,710.818c-1.953-3.846-2.273-2.17-3.042-1.121c0.06-0.033,0.107-0.084,0.194-0.059
					C226.034,715.065,226.439,712.977,226.765,710.818z"/>
				<path fill="#A97C50" d="M223.528,709.902c-0.256,0.279-0.558,0.481-0.97,0.399C223.382,712.449,223.175,710.625,223.528,709.902
					z"/>
				<path fill="#A97C50" d="M243.819,717.808c-1.134-0.918,2.482,5.462,1.25,3.837c1.076,2.743,1.216,0.9,0.825-1.213
					C245.503,718.318,244.604,715.955,243.819,717.808z"/>
				<polygon fill="#A97C50" points="219.97,698.414 222.548,703.017 221.3,698.916 				"/>
				<path fill="#A97C50" d="M229.514,698.397l-2.282-0.638c0.446,0.828,0.494,1.419,0.432,1.907
					C228.723,699.373,230.32,699.883,229.514,698.397z"/>
				<path fill="#A97C50" d="M227.664,699.667c-0.567,0.126-1.004,0.446-0.896,1.378
					C227.024,700.873,227.552,700.455,227.664,699.667z"/>
				<polygon fill="#A97C50" points="221.396,695.941 222.336,696.731 223.603,696.561 				"/>
				<path fill="#A97C50" d="M246.929,690.778c0,0,0.171-0.637,0.342-1.272c0.171-0.633,0.325-1.287,0.325-1.287
					c-1.054-2.034-2.224-2.929-2.352-1.809C245.691,687.98,245.528,689.071,246.929,690.778z"/>
				<path fill="#A97C50" d="M233.09,678.659c1.055,0.847,1.8,2.048,3.091,3.694l-3.957-6.818L233.09,678.659z"/>
				<path fill="#A97C50" d="M236.312,673.967c-1.016-2.015-1.447-7.089-2.886-5.278C234.484,670.71,234.048,673.372,236.312,673.967
					z"/>
				<polygon fill="#A97C50" points="264.126,666.229 263.838,666.619 273.539,678.651 				"/>
				<path fill="#A97C50" d="M253.652,621.184c-3.932-1.431,7.029,7.694,2.46,5.43c2.478,3.168,3.742,1.842,5.861,4.629
					C259.779,627.386,261.803,628.613,253.652,621.184z"/>
				<path fill="#A97C50" d="M261.973,631.242c0.343,0.61,0.778,1.333,1.399,2.267C262.863,632.507,262.4,631.814,261.973,631.242z"
					/>
				<path fill="#A97C50" d="M356.193,391.535c0.024,0.028,0.121-1.47,0.154-1.458l-0.227,0.872L356.193,391.535z"/>
				<path fill="#A97C50" d="M356.285,388.479c0.011,0.008,0.214-0.251,0.202-0.26c-0.029-0.016,0.133-0.99,0.161-0.973
					C356.544,387.588,356.392,388.262,356.285,388.479z"/>
				<path fill="#A97C50" d="M275.147,557.066l2.553,1.123c2.872,0.973,3.194,0.815,3.855,0.506L275.147,557.066z"/>
				<polygon fill="#A97C50" points="289.122,546.893 288.798,547.049 298.831,549.594 				"/>
				<path fill="#A97C50" d="M281.218,532.562c-0.602,0.352,1.349,1.37,0.742,1.729C280.62,532.935,293.434,535.135,281.218,532.562z
					"/>
			</g>
		</g>
	</g>
</g>
<g>
	<g>
		<g>
			<g>
				<path fill="#A97C50" d="M521.601,651.898c0.686,0.195,0.438,0.122,0.543,0.156C520.972,651.625,521.638,651.94,521.601,651.898z
					"/>
				<path fill="#A97C50" d="M510.885,651.446l0.093-0.364c-0.01-0.033-1.33,0.905-1.321,0.939c0,0,0.306-0.152,0.61-0.304
					C510.575,651.582,510.885,651.446,510.885,651.446z"/>
				<path fill="#A97C50" d="M500.909,651.373c0.847,1.383,1.69,1.172,2.603,0.827c0.906-0.367,1.898-0.803,2.885-0.432l0.419,0.474
					c0,0,0.088-0.422,0.175-0.843c0.093-0.402,0.186-0.805,0.186-0.805c-1.063,0.064-2.217,0.38-3.3,0.661
					C502.792,651.534,501.771,651.752,500.909,651.373z"/>
				<path fill="#A97C50" d="M493.655,644.173c0.703,1.384-0.904,0.889,1.418,0.669c-0.164-0.162-0.223-0.25-0.324-0.367
					C494.526,644.444,494.214,644.379,493.655,644.173z"/>
				<path fill="#A97C50" d="M494.749,644.475C495.836,644.623,493.731,643.251,494.749,644.475L494.749,644.475z"/>
				<path fill="#A97C50" d="M489.902,644.317c0,0,0.271-0.261,0.542-0.521c0.274-0.247,0.55-0.495,0.55-0.495
					c-0.527-0.892-1.88-1.399-1.567-1.911C488.119,641.729,488.681,642.745,489.902,644.317z"/>
				<path fill="#A97C50" d="M489.316,646.946l0.575-0.493C489.664,646.07,489.432,645.904,489.316,646.946z"/>
				<path fill="#A97C50" d="M491.133,645.485c0,0-0.312,0.235-0.624,0.471c-0.309,0.249-0.617,0.497-0.617,0.497
					c0.374,0.65,0.724,1.866,0.598-0.343C490.665,647.217,490.678,646.162,491.133,645.485z"/>
				<path fill="#A97C50" d="M492.167,646.161c1.011,0.897,2.145,1.413,1.075,2.538c1.262-0.176,1.647-0.824,1.389-1.419
					C494.37,646.683,493.457,646.095,492.167,646.161z"/>
				<path fill="#A97C50" d="M501.199,654.307c0,0,0.304,0.169,0.608,0.339c0.303,0.161,0.604,0.321,0.604,0.321
					s0.153-0.259,0.307-0.518c0.156-0.251,0.312-0.501,0.312-0.501C502.723,654.461,500.898,653.44,501.199,654.307z"/>
				<path fill="#A97C50" d="M480.468,640.491c0.174,0.982,1.162,2.727,1.595,3.987l0.732-0.98
					C482.089,642.774,480.926,641.982,480.468,640.491z"/>
				<path fill="#A97C50" d="M482.063,644.479c0,0-0.271,0.381-0.54,0.763c-0.267,0.395-0.534,0.79-0.534,0.79
					C482.394,646.346,482.433,645.566,482.063,644.479z"/>
				<path fill="#A97C50" d="M490.248,651.31c0,0,0.413-0.775,0.842-1.49c0.428-0.721,0.869-1.385,0.869-1.385
					s-0.562,0.665-1.104,1.399c-0.546,0.724-1.07,1.53-1.07,1.53L490.248,651.31z"/>
				<polygon fill="#A97C50" points="474.556,639.173 474.771,636.806 474.22,640.373 				"/>
				<path fill="#A97C50" d="M470.846,638.887c0.072-2.127-1.808-4.096-1.486-5.335c-0.933,0.099-1.315,1.898-1.658,3.585
					C468.286,636.28,469.234,636.768,470.846,638.887z"/>
				<path fill="#A97C50" d="M467.036,639.616c0.274-0.519,0.457-1.484,0.665-2.479C467.393,637.6,467.149,638.314,467.036,639.616z"
					/>
				<path fill="#A97C50" d="M478.275,645.276c-0.281-0.659-0.948-2.369-1.979-3.229l1.371,3.128
					C477.853,645.206,478.063,645.241,478.275,645.276z"/>
				<path fill="#A97C50" d="M477.714,645.274l-0.046-0.099c-0.657-0.124-1.116-0.239-1.315-0.293
					C476.524,644.932,476.935,645.05,477.714,645.274z"/>
				<path fill="#A97C50" d="M478.429,645.305c-0.057-0.012-0.1-0.022-0.153-0.028C478.408,645.577,478.468,645.68,478.429,645.305z"
					/>
				<path fill="#A97C50" d="M485.696,649.048c-0.251,0.715-0.729,1.478-0.841,2.377c-0.112,0.892,0.14,1.907,1.313,2.963
					C486.313,652.538,484.951,651.245,485.696,649.048z"/>
				<path fill="#A97C50" d="M480.121,649.067l1.758,0.689c-0.226-0.75-0.803-1.873-0.57-2.639c0,0-0.299,0.479-0.598,0.956
					C480.416,648.571,480.121,649.067,480.121,649.067z"/>
				<polygon fill="#A97C50" points="479.588,650.002 480.121,649.067 479.467,648.801 				"/>
				<path fill="#A97C50" d="M470.483,643.282c-0.313,1.424-1.016,1.501-1.784,1.676c1.05,0.776,2.056,1.201,2.927,1.251
					C471.489,645.14,471.41,643.272,470.483,643.282z"/>
				<path fill="#A97C50" d="M474.056,644.578c-0.028,0.069-0.08,0.101-0.105,0.171C474.111,645.033,474.209,645.129,474.056,644.578
					z"/>
				<path fill="#A97C50" d="M460.698,644.184c0.093,0.249,0.182,0.486,0.277,0.743c-0.038-0.232-0.074-0.446-0.114-0.689
					L460.698,644.184z"/>
				<path fill="#A97C50" d="M471.929,646.854c0.825,0.692,1.028-0.109,1.163-1.105c-0.426,0.299-0.906,0.467-1.466,0.461
					C471.687,646.689,471.754,647.009,471.929,646.854z"/>
				<path fill="#A97C50" d="M465.166,640.951c0.52,0.834,1.058,1.543,1.604,2.193C466.168,641.951,465.068,640.004,465.166,640.951z
					"/>
				<path fill="#A97C50" d="M473.497,643.823c0.021-0.049,0.037-0.104,0.066-0.134C473.166,642.961,473.278,643.308,473.497,643.823
					z"/>
				<path fill="#A97C50" d="M473.497,643.823c-0.234,0.431-0.31,1.217-0.405,1.925c0.348-0.23,0.645-0.552,0.858-0.999
					C473.809,644.51,473.638,644.151,473.497,643.823z"/>
				<path fill="#A97C50" d="M463.61,670.607c-0.322-1.943-0.228-3.894,0.233-4.852c0.462-0.965,1.292-0.941,2.454,0.88
					c0.887-3.072-2.649-14.675-5.322-21.709c0.293,1.629,0.606,3.088-0.42,5.284c0.468,1.047,1.537,2.258,2.424,3.591
					c0.886,1.34,1.589,2.793,1.309,4.517c-1.586,2.112-1.899-1.163-3.263-3.144c0.884,2.357,0.604,4.122,0.324,6.257
					c-0.277,2.127-0.563,4.614,0.344,8.18l1.271-2.878C463.215,667.815,462.923,669.721,463.61,670.607z"/>
				<path fill="#A97C50" d="M463.892,645.538l0.52-0.396c-0.839-0.675-1.654-2.129-3.187-5.117
					c-0.631,1.616-0.551,2.986-0.363,4.213c0,0,0.776,0.205,1.554,0.41c0.785,0.188,1.571,0.374,1.571,0.374L463.892,645.538z"/>
				<path fill="#A97C50" d="M467.193,645.371c0.362,3.62-0.768,5.261,1.064,9.313c1.764-0.353,0.569-3.16,1.3-4.734
					c-1.378,0.45-1.282-0.063-1.172-0.945c0.112-0.887,0.241-2.093-1.072-3.21c0.439-0.582,0.923-0.728,1.386-0.837
					c-0.64-0.481-1.285-1.078-1.929-1.813c0.047,0.094,0.081,0.159,0.121,0.237l0.011-0.011c0.004,0.022,0.007,0.035,0.011,0.058
					c0.234,0.473,0.341,0.755,0.135,0.475c0,0.045-0.032,0.058-0.045,0.068c0.098,0.512,0.146,0.953,0.187,1.378
					c-1.029-0.848-0.355-0.977-0.187-1.378c-0.031-0.178-0.049-0.351-0.09-0.543l-0.021-0.047c0,0-0.623,0.423-1.245,0.846
					c-0.62,0.438-1.235,0.913-1.235,0.914C465.149,645.725,465.901,645.658,467.193,645.371z"/>
				<path fill="#A97C50" d="M486.143,660.553c-0.155-0.225-0.204-0.426-0.264-0.627C485.779,660.31,485.77,660.564,486.143,660.553z
					"/>
				<path fill="#A97C50" d="M484.488,659.105c0.109-0.444-0.009-1.612,0.768-1.437c0.827,0.731,0.349,1.337,0.623,2.257
					c0.219-0.854,0.951-2.246-0.73-3.39l-0.109,0.411c-1.44-0.734-3.948-4.292-3.846-4.733
					C482.236,654.854,483.037,656.719,484.488,659.105z"/>
				<path fill="#A97C50" d="M476.032,654.007c0,0-0.521,0.457-1.04,0.914c-0.517,0.471-1.032,0.941-1.032,0.941l1.972,2.799
					l-0.493-1.744C477.01,657.421,476.184,655.339,476.032,654.007z"/>
				<polygon fill="#A97C50" points="460.007,642.128 459.435,637.893 459.308,643.778 				"/>
				<polygon fill="#A97C50" points="457.024,642.267 456.382,638.385 456.036,640.613 				"/>
				<path fill="#A97C50" d="M296.354,576.506l-2.044-0.331C294.953,576.404,295.641,576.49,296.354,576.506z"/>
				<path fill="#A97C50" d="M296.978,582.492l3.377-0.654C298.455,582.004,297.074,582.213,296.978,582.492z"/>
				<path fill="#A97C50" d="M408.378,623.538c3.148-5.395,8.706-13.311,4.313-7.368l-4.201,5.864
					C409.454,621.26,409.117,622.101,408.378,623.538z"/>
				<path fill="#A97C50" d="M350.499,614.715c-0.656,0.414-1.342,0.847-2.021,1.275c2.534-0.882,4.912-1.709,7.059-2.456
					C353.967,613.925,352.279,614.314,350.499,614.715z"/>
				<path fill="#A97C50" d="M320.811,627.28l3.896-3.563C323.256,624.763,321.947,625.93,320.811,627.28z"/>
				<path fill="#A97C50" d="M284.828,549.168l-7.213,0.679C277.765,551.249,281.316,549.831,284.828,549.168z"/>
				<path fill="#A97C50" d="M429.456,638.694c-0.597-2.473-1.05-3.602-1.457-4.048C428.564,638.307,429.139,643.464,429.456,638.694
					z"/>
				<path fill="#A97C50" d="M375.792,560.772c-1.458-0.068-3.021,0.11-4.678,0.495C372.5,561.375,373.988,561.269,375.792,560.772z"
					/>
				<path fill="#A97C50" d="M426.334,633.95c0.059,0.642,0.139,0.985,0.21,1.532c0.496-0.827,0.954-1.441,1.455-0.836
					C427.581,631.907,427.177,630.04,426.334,633.95z"/>
				<path fill="#A97C50" d="M300.159,433.945c0.169-0.078,0.272-0.174,0.462-0.243C300.22,433.663,300.154,433.776,300.159,433.945z
					"/>
				<path fill="#A97C50" d="M324.665,404.756c0.093,0.321,0.151,0.823,0.244,1.303C324.925,405.837,324.868,405.451,324.665,404.756
					z"/>
				<path fill="#A97C50" d="M444.952,638.274C445.498,638.083,444.976,637.75,444.952,638.274L444.952,638.274z"/>
				<path fill="#A97C50" d="M450.625,657.776c-0.06,0.543-0.066,1.233,0.079,2.34C450.59,658.959,450.574,658.222,450.625,657.776z"
					/>
				<path fill="#A97C50" d="M416.789,670.498c-0.021-0.003-0.033-0.026-0.057-0.03C416.764,671.706,416.762,671.469,416.789,670.498
					z"/>
				<path fill="#A97C50" d="M446.137,640.694c-0.305-0.643-0.627-1.198-0.951-1.612
					C445.357,639.491,445.648,640.017,446.137,640.694z"/>
				<path fill="#A97C50" d="M445.707,638.355c0.232,0.265,0.409,0.421,0.58,0.585C446.25,638.146,446.115,637.619,445.707,638.355z"
					/>
				<path fill="#A97C50" d="M444.171,638.383c0.325-0.012,0.665,0.277,1.015,0.699c-0.159-0.357-0.242-0.647-0.233-0.808
					C444.79,638.315,444.562,638.371,444.171,638.383z"/>
				<path fill="#A97C50" d="M304.033,493.485c0.18-0.075,0.295-0.147,0.539-0.235C302.166,492.872,302.556,493.137,304.033,493.485z
					"/>
				<path fill="#A97C50" d="M345.666,668.165c0.08-0.027,0.236-0.144,0.326-0.185c0.038-0.078,0.085-0.175,0.12-0.245
					L345.666,668.165z"/>
				<path fill="#A97C50" d="M339.73,670.141c7.702-5.463,7.266-4.268,6.382-2.405l15.467-14.914L339.73,670.141z"/>
				<path fill="#A97C50" d="M292.346,564.575l-6.319,3.133c-11.059,0.484-7.396-1.782-16.47,1.854
					c11.369-2.494,12.149-1.04,12.957,0.406c0.796,1.448,1.588,2.896,13.138,0.466l-4.691,2.15c0.178-0.358-1.192-0.108-1.004-0.464
					c-5.38,2.255-1.154,1.729,4.088,1.131c5.235-0.618,11.479-1.387,10.063,0.447c-1.618,1.419-4.869,2.893-7.754,2.808
					c0,0,1.538,0.251,3.075,0.503c1.559,0.288,3.117,0.577,3.117,0.577c-0.313,0.819-4.397,1.577-4.091,0.75l2.593,3.365
					l-0.693,0.137c3.769-0.33,9.672-0.508,12.219-0.534c-3.145,1.764-2.582,0.146-5.442,1.102l6.112,0.624
					c-5.873,2.383-12.12,2.156-11.563,0.473c-11.452,3.86-9.893,3.987-7.057,4.039c2.849,0.073,6.918,0.041,0.614,4.002
					c0,0-0.861-0.313-1.723-0.626c-0.849-0.319-1.698-0.639-1.698-0.639c-13.012,4.805-7.781,5.186-15.468,9.899
					c2.087-0.895,7-3.553,12.199-5.814c5.198-2.27,10.679-4.156,13.875-3.8c-1.604,1.115-2.229,2.224,2.782,2.138
					c-8.293,2.329-5.968,2.988-5.089,4.378l-11.013,3.077c3.625,0.798,9.178-0.993,14.385-1.499c-0.582,2.14-8.969,5.139-16,7.811
					c-0.444,1.832,2.817,0.222,6.557-1.445c3.765-1.665,7.985-3.372,9.542-1.96c-3.401,3.767,1.569,4.125,9.061,4.714
					c-3.164,2.974-6.742,2.01-9.646,3.691l9.173-1.531c-0.082,0.435-2.778,1.263-4.139,1.679c3.78,0.058,10.867-3.738,14.461-2.916
					c6.034-1.917,2.041,0.593-1.644,3.361c-3.682,2.747-7.001,5.789,0.155,4.317c-2.791,1.793-6.672,2.323-10.736,4.143
					c5.094-0.058,6.969-0.023,9.195-0.202c2.221-0.191,4.797-0.595,11.171-1.811c0,0-1.491,1.293-2.982,2.586
					c-1.476,1.312-2.95,2.623-2.95,2.623c7.163-5.094,17.472-7.08,25.792-9.002c3.559-2.238,6.698-4.148,8.16-5.133
					c0,0,1.671-0.035,3.342-0.068c1.656-0.054,3.313-0.107,3.313-0.107c-1.583,1.078-5.248,2.521-9.776,4.128
					c0.935-0.229,1.854-0.465,2.694-0.708c-3.42,2.658-9.609,5.07-15.745,7.082c1.898-1.28,3.948-2.613,5.992-3.918
					c-6.626,2.276-13.963,4.793-20.028,7.698c1.293-0.355,2.493-0.468,3.253-0.343c-1.806,0.604-3.399,1.184-4.405,1.746
					c-1.057,0.601,1.401-0.146,4.274-0.908l-11.288,6.04l4.681-1.98c0,0-1.331,1.804-2.634,3.647
					c-1.29,1.86-2.579,3.721-2.579,3.721c3.245-0.709,6.798-1.641,10.397-2.628c3.464-0.957,6.998-1.933,10.75-2.969
					c6.936-1.867,12.944-3.259,16.286-2.768c-8.617,3.664-13.332,7.258-22.927,12.647c4.727-3.44,3.164-3.59,0.546-3.392
					c-2.626,0.215-6.397,0.777-5.965-0.9c-0.446,1.735-5.238,3.949-7.042,4.488c0,0,2.938-0.19,5.838-0.444
					c1.445-0.135,2.89-0.271,3.974-0.371c1.091-0.115,1.817-0.192,1.817-0.192c-7.93,4.296-5.382,4.134-7.945,7.047
					c14.975-9.608,11.991-2.987,17.665-4.311c-4.97,3.217-10.441,6.023-10.453,3.306c-5.063,4.512-0.068,2.574,4.989,0.373
					c5.087-2.176,10.273-4.616,6.178-0.586c-0.423-0.371,0.189-1.1-2.473,0.334c2.578-0.877,3.392-0.139,2.998,1.124
					c-0.382,1.253-1.942,3.043-4.306,4.167l-0.434-0.394c0.254,2.096,1.95,4.474,5.181,5.184c3.254,0.714,7.813-0.281,13.729-4.649
					c-1.459,1.214-14.235,10.6-16.752,12.23c0,0,2.709-1.579,6.771-3.946c0.252-0.15,0.51-0.303,0.771-0.458l0.397-0.236l0.05-0.03
					l0.025-0.015l0.012-0.008c-0.197-0.242,1.769,2.084,0.941,1.096l0.096-0.068l0.192-0.137c0.514-0.366,1.045-0.745,1.591-1.135
					c1.092-0.777,2.243-1.598,3.434-2.446c2.376-1.692,4.91-3.497,7.444-5.302c10.074-7.163,20.147-14.325,20.147-14.325
					c-4.824,3.985-12.496,11.295-19.816,17.946c-7.323,6.654-14.309,12.661-17.869,14.137c-0.403,0.85-0.83,1.777-0.604,2.259
					c0.113,0.241,0.39,0.37,0.911,0.322c0.131-0.012,0.277-0.034,0.439-0.069l0.261-0.059l0.342-0.026
					c0.475-0.048,1.023-0.146,1.654-0.308c0.362-0.871,3.336-4.242,6.506-7.327c3.203-3.061,6.402-6,7.116-6.098
					c-4.298,5.476-5.249,7.111-6.022,8.569c-0.735,1.486-1.305,2.798-4.074,8.205c0.479-1.353,4.423-5.228,8.272-8.625
					c3.859-3.391,7.557-6.356,7.854-5.652c-2.163,1.947-12.945,14.059-14.835,15.074c0,0,1.028-0.676,2.571-1.689
					c0.765-0.514,1.655-1.106,2.594-1.769c0.927-0.68,1.915-1.404,2.903-2.129c3.934-2.911,7.701-5.938,7.701-5.937
					c-2.92,2.019-10.734,11.93-13.403,16.575c2.051-3.083,2.694,2.491,4.851,1.665c0,0,0.303-1.102,0.605-2.202
					c0.335-1.105,0.67-2.21,0.67-2.21c0.451,1.251,2.026,0.702,4.004-0.737c1.991-1.444,4.441-3.806,6.871-6.24
					c2.431-2.435,4.841-4.941,6.767-6.671c1.937-1.737,3.345-2.656,3.951-2.016c-1.235,1.471-4.776,6.172-7.975,10.866
					c-3.195,4.694-5.981,9.415-5.579,10.971c3.074-3.659,10.284-12.58,16.991-21.33c6.74-8.699,12.946-17.393,15.408-19.966
					l-2.152,4.873c0,0,1.059-1.096,2.063-2.202c1.004-1.092,1.984-2.248,1.984-2.248c-3.416,5.964-9.106,14.936-15.545,23.429
					c-3.198,4.239-6.559,8.365-9.684,11.918c-3.107,3.531-5.995,6.522-8.208,8.603c-0.638,4.448-2.879,5.623-0.113,6.482
					c-0.794,2.359-2.1,3.847-3.352,4.687c-1.241,0.833-2.426,1.039-2.902,0.96c0,0,0.291,0.374,0.727,0.934
					c0.432,0.568,1.033,1.299,1.668,2.002c1.249,1.425,2.555,2.839,2.555,2.839c2.402-4.813,4.896-6.667,7.161-8.365
					c2.28-1.691,4.392-3.313,6.179-7.35c0,0-2.723,1.938-5.589,3.673c-2.859,1.772-5.923,3.464-5.923,3.464
					c2.519-4.765,7.244-11.027,11.333-15.781c2.054-2.375,3.961-4.366,5.478-5.568c1.542-1.244,2.695-1.699,3.309-0.934
					c-0.468,2.091-2.549,6.328-4.774,10.435c-2.215,4.106-4.586,8.073-5.296,9.694c2.151-3.09,6.698-4.951,6.07-2.459
					c0,0-0.979,1.145-1.958,2.289c-1.006,1.14-2.011,2.278-2.011,2.278c0.417,2.249,2.784-0.644,4.779-2.891
					c2.024-2.227,3.638-3.753,3.343,1.291c0.363,0.443-0.014,3.792-0.138,6.297c-0.13,2.484-0.043,4.144,0.979,1.27
					c1.828-11.504,13.807-46.04,17.062-54.191c-0.042,0.41-0.31,3.337-0.525,6.887c-0.236,3.554-0.385,7.729-0.737,10.586
					c-0.61,4.493-2.353,9.609-4.25,14.531c-1.87,4.921-3.904,9.69-4.299,13.575c0.808-2.661,2.514-5.757,3.111-6.771
					c0.333,2.424-2.57,8.193-0.137,7.304c2.762-9.814,3.948,1.47,2.974-8.189c1.276-1.249,1.643-0.657,2.019,0.234
					c0.37,0.901,0.745,2.088,1.917,1.979c0.244-3.201,1.809-8.537,3.41-13.357c1.619-4.824,3.244-9.121,4.159-10.346
					c-0.461,2.448-0.606,5.721-0.642,7.211c1.559,0.625,2.659,2.067,3.805,3.388c1.141,1.337,2.324,2.419,3.927,2.522
					c0.141,2.281,1.632,5.005,0.751,8.997c0.585-1.646,1.157-4.791,2.175-5.053c1.788,7.826-2.382,1.366-1.178,10.851
					c0.365-5.383,3.038-7.572,4.484-10.897c-0.212-4.033-0.994-4.424-1.947-3.362c-0.951,1.054-2.108,3.602-2.929,5.297
					c0.255-5.724,1.136-11.607,2.21-16.61c1.087-5.014,2.348-9.104,3.68-11.495c2.128-2.504,1.065,7.193,1.421,5.664
					c2.195,1.068,2.94-3.584,3.515-7.429c0.599-3.854,1.008-6.846,2.96-2.878c0.938,3.354,1.249,6.57,1.375,9.6
					c0.131,3.02,0.083,5.841,0.443,8.192c-1.836,2.625-3.354-4.104-4.623-3.854c0,0,0.449,0.795,0.898,1.59
					c0.459,0.783,0.917,1.567,0.917,1.567c-0.487,2.235-1.777,4.065-2.597,2.101c0.766,3.068,2.803,3.183,5.124,3.242
					c1.16,0.01,2.387-0.045,3.593,0.226c1.207,0.269,2.393,0.826,3.467,1.944c0.409-2.198,1.238-4.459,0.398-6.857l-1.024,0.991
					c-0.821-2.444-0.495-4.239-0.198-5.653c0.3-1.422,0.578-2.478-0.256-3.614c1.035-3.569,1.83-8.727,4.259-6.02l1.425,6.613
					c-0.355-1.912-1.959-3.915-2.231-1.849c0.207-1.507,1.332,0.752,2.384,2.211c1.047,1.473,2.016,2.152,1.773-2.086
					c0,0-0.55-1.11-1.099-2.222c-0.544-1.128-1.087-2.257-1.087-2.257c0.46-1.645,0.837-4.139,1.372-5.921
					c0.533-1.785,1.209-2.835,2.291-1.776c-0.978-3.083-1.045-2.936-1.197-2.908c-0.15,0.019-0.388-0.069-1.667-3.807
					c1.357,4.594,0.2,4.349-0.859,4.188c-1.046-0.188-1.991-0.264-0.318,4.752c-1.362-4.422-2.05-5.457-2.763-6.321
					c-0.708-0.878-1.449-1.57-2.8-5.636c0.369,2.26,1.172,4.416-0.375,3.013c0.028,0.649-0.005,1.465-0.033,1.942
					c-0.051-0.068-0.07-0.109-0.117-0.188c0.041,0.103,0.072,0.183,0.113,0.284c-0.015,0.33-0.01,0.401,0.042,0.1
					c0.467,1.058,0.906,2.294,1.194,3.568c0.012,5.077-2.336,4.772-2.796,7.54c-0.992-1.17,0.049-2.678-0.708-5.224l-0.681,4.097
					c-0.34-2.649-1.123-4.923-1.601-6.917c-0.48-1.987-0.663-3.689,0.104-5.042l-1.687-0.61c-1.271-3.236-2.566-4.921-3.183-2.775
					c-0.779-1.441-1.521,5.772-1.106,1.501l-2.274,2.9l-0.061-1.455c-1.173-0.714-2.337,1.427-3.569,2.293
					c-0.617,0.441-1.257,0.58-1.862-0.127c-0.596-0.72-1.128-2.335-1.52-5.345c-0.746,1.264-1.719,3.04-2.597,0.765l0.396-5.541
					c-0.477,0.762-0.875-0.884-1.216-2.039c-0.349-1.155-0.598-1.88-1.224,0.931c0.888-7.723,0.438-8.97-0.279-8.818
					c-0.359,0.081-0.831,0.555-1.237,0.803c-0.201,0.124-0.386,0.191-0.521,0.122c-0.118-0.086-0.187-0.309-0.175-0.743
					l-2.114,7.341c-0.485-0.992-1.762,0.802-3.637,3.055l-2.29,6.544c-1.418,2.388-1.661,0.866-1.573-1.246
					c0.095-2.171,0.59-4.972-0.138-5.053c1.259-2.391,1.203-1.543,0.73,0.107c1.326-3.907,1.621-5.277,1.267-5.398
					c-0.332-0.149-1.337,0.995-2.489,2.25c-1.141,1.246-2.447,2.646-3.143,2.945c-0.686,0.296-0.792-0.426,0.563-3.233
					c-1.709,1.962-1.465,1.006-0.61-0.701c0.034,0.01,0.134-0.082,0.282-0.257c0.021-0.099-0.01-0.149-0.062-0.175
					c0.604-1.146,1.23-2.334,1.899-3.602c-0.938,1.576-1.687,2.928-1.973,3.566c-0.291-0.077-1.091,0.314-2.511,1.476l4.595-6.546
					c-0.081,0.06-0.087,0.027-0.189,0.112c1.551-2.637-2.498,2.766-5.918,7.745c-0.958,0.873-2.085,1.966-3.407,3.36
					c3.796-5.263,2.927-4.57,2.077-4.092c-0.835,0.497-1.693,0.859,2.62-4.65c-2.277,2.472-3.493,2.96-5.432,4.155
					c-0.483,0.296-1.011,0.635-1.61,1.055c-0.576,0.427-1.203,0.94-1.952,1.568c-1.488,1.259-3.412,2.981-5.973,5.509
					c1.291-1.364,1.813-2.123,2.084-1.986c0.73-1.652,1.607-3.165-1.727-0.757c0,0,1.863-1.826,3.727-3.653
					c1.878-1.814,3.756-3.629,3.756-3.629s-2.712,2.224-5.564,4.314c-2.959,1.938-5.917,3.876-5.917,3.876
					c3.948-5.237,6.422-8.155,13.225-12.532c-5.571,2.925-6.841,3.227-8.064,3.563c-0.612,0.169-1.212,0.347-2.342,0.874
					c-0.297,0.145-0.613,0.299-0.955,0.466c-0.183,0.094-0.372,0.191-0.568,0.292l-0.152,0.08l-0.078,0.041l-0.02,0.011l-0.01,0.005
					l-0.005,0.003c-0.75-0.888,1.016,1.212,0.832,0.996l-0.039,0.021c-0.106,0.055-0.215,0.11-0.325,0.167
					c-0.956,0.503-2.062,1.083-3.372,1.772l5.458-4.136c-0.304-0.22-2.437,0.832-3.992,1.437c-1.551,0.608-2.515,0.777-0.359-1.104
					c4.74-4.555,4.176-6.521,3.242-8.643c-0.436-1.1-0.932-2.267-0.786-3.759c0.146-1.491,1.01-3.406,3.246-5.82
					c-8.802,5.485-7.021,3.893-4.774,1.926c2.243-1.957,5.019-4.267-2.087-0.496c4.189-2.581,6.4-4.386,10.431-5.844
					c-2.556,0.243-1.177-1.368-0.703-2.354c0.457-0.987,0.033-1.41-6.368,0.946c4.344-2.41,6.654-2.808,9.188-4.303
					c-1.014,0.334-4.099,1.314-1.539-0.172c2.559-1.473,3.837-1.554,5.877-2.232c-1.475-1.371-15.346,4.922-28.353,10.843
					c5.615-4.003,4.581-4.083-4.365-1.071c4.085-2.333,8.298-4.933,10.417-4.292c0.147-0.521,1.211-2.349,0.94-3.471
					c-0.248-1.146-1.867-1.619-7.197,0.525c2.594-1.357,0.344-1.416-0.974-1.133c-0.087-2.035,0.863-2.583-0.835-3.956l-1.57,1.159
					c-13.24,4.192-3.504-0.425-5.589-1.317l1.353-0.44c4.102-3.39,2.852-3.316,1.756-3.349c-1.081-0.019-2.048-0.12,2.811-3.595
					l-8.11,2.91c-8.842,2.781-6.516,1.098-2.88-1.168c3.642-2.284,8.572-5.073,4.888-5.021l-4.466,2.176
					c-3.197,0.382,2.568-2.27,9.38-5.12c6.811-2.864,14.668-5.922,15.609-6.725c1.471-0.659,2.588-0.384,3.827-0.429
					c9.594-5.528-10.907,2.826-14.041,1.535c5.712-1.997,14.956-3.723,15.633-5.293c2.258-0.968-2.765-0.563-7.036-0.617
					c-4.249-0.055-7.773-0.574-2.463-2.886c-4.368,1.517-8.731,3.085-12.394,2.957c-1.027-0.548,2.935-2.605,5.338-4.212
					c2.399-1.613,3.229-2.778-4.024-1.852c1.172-0.466,2.325-0.801,3.438-1.059c-3.952-0.379-7.118-2.662-14.917-1.744
					c14.003-3.645,9.932-4.99,5.74-6.044c-4.206-1.067-8.577-1.891,4.254-4.804c0,0-0.646-0.933-1.291-1.866
					c-0.63-0.885-1.26-1.771-1.26-1.771l2.624-0.494c0.924-2.834-5.416-2.313-11.708-1.811c1.555-0.963,4.023-1.079,5.36-1.333
					c4.036-4.768,2.716-4.81-10.483-5.074l7.945-2.099c-2.456,0.112,0.316-1.883,2.349-4.056c2.05-2.187,3.306-4.519-1.816-5.258
					c0.898-0.156,2.441-0.409,3.637-0.374c-5.222-0.953-0.536-4.436,1.713-7.027c2.246-2.611,2.158-4.325-11.817-2.292l-7.497-1.249
					c-0.593,1.895-3.613,2.367-6.976,2.635c-3.367,0.271-7.061,0.327-9.182,1.493c-1.849-1.079,7.422-5.129,9.202-3.734
					l-1.296,0.524c14.326-2.164,3.896-5.193,13.409-6.903c-1.333-3.188-0.512-6.738,0.232-10.182
					c0.829-3.441,1.753-6.791,0.908-9.809l-9.582,2.19l-0.059-2.229c2.118-0.896,7.324-1.858,7.444-0.31
					c5.195-1.596-5.404-1.819-7.467-1.588c1.535-1.77,4.36-1.855,6.867-1.651c2.499,0.208,4.669,0.709,4.626,0.253l-1.141-1.094
					l-1.019,0.429c-4.228-0.425-8.34,0.048-8.417-1.838c1.52-1.4,5.557-1.352,5.766-1.847c0.658-0.084,0.911-0.273,0.024-0.716
					l-0.158-2.719l-6.818,1.955c-3.905-0.748-0.309-2.587-8.083-0.34c6.053-1.705,6.406-4.306,5.771-6.73
					c-0.626-2.418-2.267-4.683-0.636-5.394c-5.142-1.244-5.328-2.964-5.286-5.073c-1.14,0.604-8.027,1.444-7.443-0.468
					c7.079-0.154,8.426-1.086,9.142-2.222c0.364-0.569,0.576-1.196,1.286-1.801c0.722-0.602,1.92-1.182,4.194-1.656
					c-5.971,1.607-2.972-4.903-11.093-2.542c0.729-1.548,4.747-0.286,7.413-1.52c-1.469-0.829-2.104-1.746-2.324-2.711
					c-0.238-0.966-0.047-1.978,0.253-2.999c0.284-1.025,0.623-2.071,0.703-3.131c0.069-1.061-0.115-2.136-0.784-3.232
					c-1.348-0.093-3.265,0.626-5.467-0.359l5.947-2.196c-0.445-0.435-2.328-0.686-3.581-1.013c-1.263-0.325-1.856-0.733,0.08-1.451
					c-0.965,0.184-2.47,0.469-2.955-0.138c1.126-2.13,0.981-4.312,0.491-6.563c-0.483-2.244-1.155-4.522-1.737-6.846
					c-0.576-2.318-1.017-4.664-0.911-6.921c0.024-2.275,0.354-4.507,0.583-6.742c-0.441,1.149-0.761,0.267-0.966-0.727
					c-0.054,0.608-0.929-0.2-1.404-0.175c0,0,0.064-0.23,0.186-0.568c0.114-0.34,0.251-0.796,0.36-1.258
					c0.236-0.919,0.284-1.883,0.284-1.883c-0.511-0.473-0.588-1.544-0.686-2.59c-0.086-1.042-0.228-2.072-0.353-2.314
					c0,0,0.026,0.323,0.053,0.646c0.033,0.324,0.067,0.648,0.067,0.648c-0.283-0.911-0.414-0.36-0.935,0.277
					c-0.474,0.647-1.349,1.388-1.843,1.146c0.052,0.963-0.779,2.011-1.974,3.166c-1.156,1.158-2.614,2.454-1.697,4.188
					c-0.815,0.541-0.555-0.691-1.289-0.457c0.656,0.92,0.631,1.858-0.704,3.417l-0.237-0.24c-1.875,4.725-4.011,6.533-7.975,11.893
					l2.655-0.178c-0.773,1.146-1.682,1.327-2.572,1.83c3.449,1.683,1.524-3.302,5.223-1.684c-2.704,0.537-3.684,2.624-4.351,4.647
					c-0.75,2.025-1.546,3.993-5.389,4.371c-0.37,0.939,0.612,0.842,1.579,0.745c0.969-0.097,1.922-0.19,1.627,0.736l-2.188,0.413
					l2.497,0.572c-0.771,1.199-3.64,1.746-5.479,1.744c0.325-0.297-0.183-0.875-0.206-1.205c-1.544,0.767-1.847,1.932-1.707,2.943
					c0.103,1.019,0.513,1.903-0.016,2.176l1.956-1.803c0.281,2.598-0.723,5.469-1.368,8.357c-0.677,2.887-0.762,5.727,1.651,8.125
					l2.18-0.464c1.705,1.813,1.058,2.584,0.064,3.439c-0.96,0.846-2.316,1.79-1.54,3.809l-0.529-0.117
					c2.188,0.692,3.291,1.711,2.941,2.861c-1.341-0.424-2.714,0.161-4.156,0.722c-1.437,0.559-2.935,1.091-4.374,0.5
					c2.073,1.927,3.002,2.354,4.438,2.573c1.458,0.211,3.415,0.221,7.972,1.156l-4.151,0.984c3.696,0.584,5.681,0.474,6.842,2.377
					c-1.846-0.647-3.435-0.176-5.206,0.299c-1.759,0.47-3.711,0.946-6.053,0.221c-4.793,2.648-2.621,4.089-0.802,5.209
					c1.783,1.137,3.15,1.983-4.144,3.854c12.43,0.529,7.048-4.585,9.655-3.764c2.007-0.687,4.277-0.526,5.942-0.031
					c1.659,0.497,2.709,1.331,2.111,2.066c-0.1,0.686-4.111,1.747-8.088,3.084c-3.975,1.335-7.99,2.973-7.936,4.731
					c0.073-0.36-0.909-0.255-0.84-0.614c-1.681,0.881-0.595,1.39,0.256,1.959c0.846,0.572,1.452,1.204-1.331,2.406
					c8.061-0.228-0.521,2.189,9.872,0.948c0,0-0.619-0.71-1.238-1.419c-0.604-0.715-1.209-1.43-1.209-1.43
					c1.332,0.725,5.049,1.077,7.75,1.696c2.691,0.625,4.397,1.505,1.539,3.399c-2.163,0.101-5.028-0.344-6.609-0.716
					c-3.07,1.328,2.156,1.342-1.012,2.724c-10.653,1.368-2.451-3.504-10.301-4.356c-4.44,1.604,7.448,2.662-3.852,3.324
					c7.169-0.331,6.766,0.574,5.86,1.706c-0.885,1.12-2.275,2.464,3.425,2.753l-6.48,0.868c1.011,0.222,4.095,0.514,3.944,1.232
					l-8.444,0.086c3.575,0.41,2.011,1.596-0.021,2.87c-2.023,1.27-4.512,2.627-2.54,3.243c-0.089-3.952,8.021-2.236,12.836-4.69
					c4.505,1.636,0.215,3.034-4.888,4.675c-5.07,1.63-11.02,3.516-9.39,5.96c-0.949-0.576,4.077-3.485,7.233-2.894
					c-1.367,1.267-3.966,3.093-7.582,4.388c0.71,1.683,2.502,1.211,4.625,0.426c2.127-0.787,4.572-1.879,6.724-1.514
					c-8.388,2.754,3.488,1.116,6.347,2.117l-7.116,1.349c-4.402,4.891,14.978-1.782,9.756,2.814l-10.15,0.437l2.729,1.365
					l-8.271,1.218c6.23,0.864,4.729,1.784,2.491,4.271c5.151-1.504,13.37-2.416,13.804-0.739c-4.287,2.083-7.117,0.774-5.824,3.027
					c-4.731,0.412-10.58,0.968-3.827-1.516c-2.421,0.378-4.678,0.38-7.06,0.743c-5,2.351-1.025,3.552-0.855,4.428
					c0.254-0.407,0.624-0.907,1.672-1.34c0,0,2.672,0.365,5.344,0.73c2.7,0.35,5.4,0.699,5.4,0.699
					c-2.772,1.156-5.103,1.191-7.369,1.211c0.88,0.561,4.402,0.332,5.169,1.258c-6.193,1.029-12.562,2.449-15.542,1.51
					c0,0,1.762,0.512,3.524,1.023c1.779,0.502,3.558,1.005,3.558,1.005c-2.667,0.802-7.296,3.378-9.62,3.419
					c-1.783,1.377,1.284,1.916,4.314,2.517c3.009,0.612,5.924,1.31,3.596,3.107c1.244-0.143,2.448-0.142,3.416,0.188
					c-0.59,1.333-2.791,2.961-3.725,4.367c-0.941,1.412-0.583,2.553,4.032,2.922l-11.412,4.198c1.438,0.783,5.048-0.586,8.881-1.816
					c3.836-1.232,7.893-2.327,10.354-1.056c4.097,1.659-9.82,3.217-12.96,4.852c3.023-0.043,7.618-0.211,10.32,0.189
					c2.687,0.337,3.477,1.256-1.163,3.424C291.647,566.002,293.308,565.046,292.346,564.575z M302.562,590.468
					c-1.882-0.085-7.54,0.191-2.725-1.511C309.492,587.1,305.059,588.765,302.562,590.468z M337.213,625.448
					c-2.759,0.873-1.785-0.34,0.854-2.381C338.941,623.233,338.907,623.893,337.213,625.448z M439.125,641.662
					c-0.008,0.107-0.014,0.184-0.021,0.276C438.023,639.428,438.412,640.407,439.125,641.662z M441.307,644.524
					c0.123-0.774,0.03-1.573-0.13-2.394c0.005,1.433-0.433,1.464-0.971,0.967C440.479,644.652,440.835,645.729,441.307,644.524z
					 M344.933,480.375l-1.461,0.626C341.413,480.289,343.081,480.346,344.933,480.375z"/>
				<path fill="#A97C50" d="M324.264,625.853c1.265-0.755,2.716-1.459,4.187-2.164C327.03,624.08,325.49,624.762,324.264,625.853z"
					/>
				<path fill="#A97C50" d="M286.162,549.041c0.061-0.041,0.034-0.063,0.079-0.101c-0.47,0.058-0.946,0.138-1.413,0.228
					L286.162,549.041z"/>
				<path fill="#A97C50" d="M400.247,696.276c-0.393-1.098-0.402-2.477-0.27-3.843C399.464,694.135,399.356,695.665,400.247,696.276
					z"/>
				<path fill="#A97C50" d="M450.815,637.183l-1.104,1.072c0.598-0.132,1.01,1.038,1.472,1.905
					C450.954,638.962,450.416,637.179,450.815,637.183z"/>
				<path fill="#A97C50" d="M468.838,666.19c0.098-0.577,0.44-0.159,0.533-0.74l-0.501-1.979
					C467.99,663.764,467.71,665.545,468.838,666.19z"/>
				<path fill="#A97C50" d="M454.954,654.123c0.844,4.226,1.498,2.724,2.36,1.926c-0.057,0.018-0.108,0.055-0.177,0.007
					C456.377,650.29,455.672,652.158,454.954,654.123z"/>
				<path fill="#A97C50" d="M457.521,655.9c0.274-0.204,0.57-0.322,0.909-0.138C458.119,653.484,457.967,655.293,457.521,655.9z"/>
				<path fill="#A97C50" d="M443.481,641.775c0.57,1.275-0.437-5.984,0.026-4.018c-0.122-2.941-0.6-1.284-0.814,0.799
					C442.479,640.637,442.503,643.168,443.481,641.775z"/>
				<polygon fill="#A97C50" points="458.201,667.887 456.922,662.769 457.079,667.046 				"/>
				<path fill="#A97C50" d="M449.467,665.021c0,0,0.462,0.353,0.924,0.704c0.465,0.343,0.929,0.685,0.929,0.685
					c-0.158-0.928-0.03-1.499,0.163-1.941C450.45,664.41,449.204,663.343,449.467,665.021z"/>
				<path fill="#A97C50" d="M451.482,664.469c0.538,0.049,1.02-0.128,1.172-1.049C452.382,663.507,451.803,663.749,451.482,664.469z
					"/>
				<polygon fill="#A97C50" points="456.211,669.872 455.537,668.846 454.304,668.641 				"/>
				<path fill="#A97C50" d="M432.038,664.433c0,0-0.432,0.477-0.866,0.918c-0.439,0.452-0.879,0.904-0.879,0.904
					c-0.204,2.276,0.278,3.682,0.955,2.796C431.681,667.486,432.325,666.606,432.038,664.433z"/>
				<path fill="#A97C50" d="M438.203,681.778c-0.6-1.237-0.702-2.647-1.092-4.704l0.301,7.878L438.203,681.778z"/>
				<path fill="#A97C50" d="M432.407,684.308c-0.143,2.273-3.048,6.822-0.336,6.019
					C432.291,688.044,434.309,685.946,432.407,684.308z"/>
				<path fill="#A97C50" d="M403.912,670.771l0.505,0.021l4.363-14.827c0,0-1.206,3.701-2.412,7.402
					C405.141,667.068,403.912,670.771,403.912,670.771z"/>
				<path fill="#A97C50" d="M357.03,692.041c0.623,5.118,6.716-7.975,6.389-2.296c2.861-2.858,0.293-4.618,2.933-7.005
					C362.349,685.134,362.811,682.624,357.03,692.041z"/>
				<path fill="#A97C50" d="M366.352,682.74c0.633-0.376,1.359-0.863,2.254-1.575C367.565,681.735,366.888,682.254,366.352,682.74z"
					/>
				<path fill="#A97C50" d="M324.358,399.558c0,0-0.039-0.364-0.12-0.739c-0.082-0.376-0.164-0.753-0.164-0.753
					c0.019,0.005,0.075,0.938,0.057,0.932L324.358,399.558z"/>
				<path fill="#A97C50" d="M323.389,396.566c0.013,0.003,0.094-0.313,0.08-0.317c-0.032-0.008-0.28-0.943-0.248-0.935
					C323.267,395.654,323.398,396.322,323.389,396.566z"/>
				<path fill="#A97C50" d="M281.18,601.194l2.715-0.64c2.84-1.087,2.965-1.532,3.23-2.432L281.18,601.194z"/>
				<polygon fill="#A97C50" points="285.212,577.099 285.031,577.488 294.982,574.636 				"/>
				<path fill="#A97C50" d="M270.805,564.508c-0.345,0.764,1.905,1.052,1.555,1.818C270.468,565.267,282.933,561.55,270.805,564.508
					z"/>
			</g>
		</g>
	</g>
</g>
</svg>
